<svg width="300" height="352" viewBox="0 0 300 352" fill="none" xmlns="http://www.w3.org/2000/svg">
<g filter="url(#filter0_d_90_216)">
<path d="M60.0646 125.341H16.7054C11.126 125.341 6.58691 120.941 6.58691 115.533V68.1452C6.58691 62.7371 11.126 58.3374 16.7054 58.3374H60.0646C65.644 58.3374 70.1831 62.7371 70.1831 68.1452V115.533C70.1831 120.941 65.644 125.341 60.0646 125.341Z" fill="#F1FCF2"/>
<path d="M60.0646 125.341H16.7055C11.1261 125.341 6.58694 120.941 6.58694 115.533C4.40666 98.0836 3.80603 81.8321 6.58694 68.1452C6.58694 62.7371 11.1261 58.3374 16.7055 58.3374H60.0646C65.644 58.3374 70.1831 62.7371 70.1831 68.1452V115.533C70.1831 120.941 65.644 125.341 60.0646 125.341ZM16.7055 59.6775C11.8882 59.6775 7.96948 63.4758 7.96948 68.1452V115.533C7.96948 120.202 11.8882 124.001 16.7055 124.001H60.0646C64.8819 124.001 68.8006 120.202 68.8006 115.533V68.1452C68.8006 63.4758 64.8819 59.6775 60.0646 59.6775H16.7055Z" fill="#645BF9"/>
<path d="M55.315 94.5715H19.589C18.0737 94.5715 16.8408 93.377 16.8408 91.9089C16.8408 90.4408 18.0737 89.2463 19.589 89.2463H55.315C56.8304 89.2463 58.0632 90.4408 58.0632 91.9089C58.0632 93.377 56.8303 94.5715 55.315 94.5715Z" fill="#59CF60"/>
<path d="M55.315 109.312H19.589C18.0737 109.312 16.8408 108.118 16.8408 106.65C16.8408 105.182 18.0737 103.987 19.589 103.987H55.315C56.8304 103.987 58.0632 105.182 58.0632 106.65C58.0632 108.118 56.8303 109.312 55.315 109.312Z" fill="#59CF60"/>
<path d="M55.315 79.8306H19.589C18.0737 79.8306 16.8408 78.6362 16.8408 77.1681C16.8408 75.6999 18.0737 74.5055 19.589 74.5055H55.315C56.8304 74.5055 58.0632 75.6999 58.0632 77.1681C58.0632 78.6362 56.8303 79.8306 55.315 79.8306Z" fill="#59CF60"/>
</g>
<g filter="url(#filter1_d_90_216)">
<path d="M258.31 132.294H214.951C209.371 132.294 204.832 127.895 204.832 122.486V75.0985C204.832 69.6905 209.371 65.2908 214.951 65.2908H258.31C263.889 65.2908 268.428 69.6905 268.428 75.0985V122.486C268.428 127.895 263.889 132.294 258.31 132.294Z" fill="#F1FCF2"/>
<path d="M258.31 132.294H214.951C209.371 132.294 204.832 127.895 204.832 122.486C200.988 106.872 201.307 91.0607 204.832 75.0985C204.832 69.6905 209.371 65.2908 214.951 65.2908H258.31C263.889 65.2908 268.428 69.6905 268.428 75.0985V122.486C268.428 127.895 263.889 132.294 258.31 132.294ZM214.951 66.6308C210.133 66.6308 206.215 70.4292 206.215 75.0985V122.486C206.215 127.156 210.133 130.954 214.951 130.954H258.31C263.127 130.954 267.046 127.156 267.046 122.486V75.0985C267.046 70.4292 263.127 66.6308 258.31 66.6308H214.951Z" fill="#59CF60"/>
<path d="M254.493 86.7865H218.767C217.251 86.7865 216.019 85.592 216.019 84.1239C216.019 82.6558 217.251 81.4613 218.767 81.4613H254.493C256.008 81.4613 257.241 82.6558 257.241 84.1239C257.241 85.592 256.008 86.7865 254.493 86.7865Z" fill="#645BF9"/>
<path d="M254.493 99.2247H218.767C217.251 99.2247 216.019 98.0302 216.019 96.5621C216.019 95.094 217.251 93.8995 218.767 93.8995H254.493C256.008 93.8995 257.241 95.094 257.241 96.5621C257.241 98.0302 256.008 99.2247 254.493 99.2247Z" fill="#645BF9"/>
<path d="M254.493 111.663H218.767C217.251 111.663 216.019 110.469 216.019 109C216.019 107.532 217.251 106.338 218.767 106.338H254.493C256.008 106.338 257.241 107.532 257.241 109C257.241 110.469 256.008 111.663 254.493 111.663Z" fill="#645BF9"/>
</g>
<path d="M182.722 82.0907L187.088 70.3564C188.242 78.1217 192.358 87.9418 196.374 95.0166C188.633 92.4169 178.158 90.2358 170.268 90.5618L180.899 84.1923C150.793 64.5034 113.214 66.2948 90.618 88.8345L88.7253 86.9369C112.328 63.3937 151.502 61.5056 182.722 82.0907Z" fill="#59CF60"/>
<path d="M91.4117 81.8765L87.0456 70.1423C85.8915 77.9075 81.7757 87.7277 77.7594 94.8025C85.5011 92.2028 95.9762 90.0217 103.866 90.3477L93.2347 83.9782C123.34 64.2893 160.919 66.0807 183.516 88.6203L185.409 86.7228C161.806 63.1795 122.631 61.2915 91.4117 81.8765Z" fill="#59CF60"/>
<g clip-path="url(#clip0_90_216)">
<path fill-rule="evenodd" clip-rule="evenodd" d="M111.619 11.0539C111.619 4.94901 116.533 0 122.595 0H150.535C156.597 0 161.511 4.94902 161.511 11.0539V32.4919C161.511 38.6626 156.531 43.4118 150.535 43.4118L136.729 43.4118L125.345 50.2909C122.817 51.818 119.602 49.9847 119.602 47.0165V43.0045C115.029 41.7301 111.619 37.5975 111.619 32.4919V11.0539Z" fill="#645BF9"/>
<path fill-rule="evenodd" clip-rule="evenodd" d="M166.061 26.228H169.494C174.086 26.228 175.463 29.9773 175.463 34.6022V48.8942C175.463 52.4564 173.254 55.499 170.141 56.7093L170.141 60.5173C170.141 63.1106 167.332 64.716 165.124 63.3818C165.023 63.3204 164.925 63.253 164.831 63.18L157.254 57.2693L146.304 57.2685C144.129 57.2684 142.013 56.2579 140.649 54.6284C140.175 54.0609 139.773 53.3959 139.5 52.645C138.934 51.0808 138.982 47.8964 138.982 47.8964H150.535C159.515 47.8964 166.061 41.9093 166.061 32.4919V26.228Z" fill="#645BF9"/>
<g clip-path="url(#clip1_90_216)">
<path d="M138.623 29.1377C139.57 30.3225 141.446 30.02 141.973 28.5975L147.74 13.0367C148.32 11.4698 146.793 9.94458 145.23 10.5297L129.707 16.3382C128.287 16.8694 127.99 18.7484 129.176 19.6933L132.182 22.0889C132.649 22.4613 133.31 22.4668 133.784 22.1021L141.06 16.4979C141.268 16.3375 141.563 16.3567 141.749 16.5427C141.935 16.7288 141.954 17.024 141.794 17.2326L136.198 24.5159C135.833 24.9909 135.84 25.6541 136.213 26.122L138.623 29.1377Z" fill="#F1FCF2"/>
<path fill-rule="evenodd" clip-rule="evenodd" d="M130.184 22.918C130.691 23.4261 130.691 24.2499 130.184 24.758L127.213 27.7319C126.706 28.24 125.883 28.24 125.376 27.7319C124.868 27.2238 124.868 26.4 125.376 25.8919L128.346 22.918C128.853 22.4099 129.676 22.4099 130.184 22.918ZM135.382 28.1223C135.889 28.6304 135.889 29.4542 135.382 29.9623L132.411 32.9362C131.904 33.4443 131.081 33.4443 130.574 32.9362C130.066 32.4281 130.066 31.6043 130.574 31.0962L133.544 28.1223C134.051 27.6142 134.874 27.6142 135.382 28.1223ZM130.926 27.3788C131.434 27.8869 131.434 28.7107 130.926 29.2188L127.213 32.9362C126.706 33.4443 125.883 33.4443 125.376 32.9362C124.868 32.4281 124.868 31.6043 125.376 31.0962L129.089 27.3788C129.596 26.8707 130.419 26.8707 130.926 27.3788Z" fill="#F1FCF2"/>
</g>
</g>
<g clip-path="url(#clip2_90_216)">
<path d="M146.934 277.25C148.908 278.267 151.128 278.774 153.595 278.774C156.063 278.774 158.284 278.267 160.257 277.25C162.231 276.234 163.77 274.782 164.873 272.895C166.005 270.978 166.571 268.742 166.571 266.186C166.571 258.964 163.844 256.691 162.03 256.691C160.216 260.321 158.402 262.136 155.86 263.051C156.47 263.747 156.774 264.793 156.774 266.186C156.774 267.58 156.47 268.641 155.86 269.367C155.25 270.063 154.496 270.412 153.595 270.412C152.667 270.412 151.898 270.063 151.288 269.367C150.707 268.641 150.417 267.58 150.417 266.186C150.417 264.793 150.722 263.747 151.331 263.051C151.941 262.324 152.696 261.962 153.595 261.962C158.402 260.321 157.656 257.793 160.257 255.123C158.284 254.107 156.063 253.599 153.595 253.599C151.128 253.599 148.908 254.107 146.934 255.123C144.96 256.14 143.407 257.606 142.275 259.522C141.171 261.41 140.62 263.631 140.62 266.186C140.62 268.742 141.171 270.978 142.275 272.895C143.407 274.782 144.96 276.234 146.934 277.25Z" fill="#59CF60"/>
<path d="M91.4609 278.782V246.55H81.7949V278.782H91.4609Z" fill="#645BF9"/>
<path d="M128.922 255.341C127.5 256.183 126.294 257.316 125.308 258.739V254.209H115.642V278.774H125.308V268.713C125.308 267.087 125.729 265.955 126.571 265.316C127.442 264.677 128.791 264.358 130.62 264.358H133.363V254.035C131.825 254.035 130.345 254.47 128.922 255.341Z" fill="#645BF9"/>
<path d="M213.887 256.873C212.175 254.985 209.75 254.042 206.616 254.042C204.932 254.042 203.394 254.462 202 255.304C200.607 256.118 199.46 257.163 198.561 258.441C197.748 257.047 196.659 255.973 195.295 255.217C193.93 254.433 192.363 254.042 190.592 254.042C188.967 254.042 187.544 254.361 186.325 255C185.135 255.638 184.192 256.48 183.495 257.526V254.215H173.828V278.782H183.495V265.758C183.495 264.713 183.8 263.9 184.41 263.319C185.019 262.709 185.861 262.404 186.935 262.404C187.979 262.404 188.807 262.709 189.417 263.319C190.055 263.9 190.374 264.713 190.374 265.758V278.782H199.997V265.758C199.997 264.713 200.302 263.9 200.912 263.319C201.521 262.709 202.363 262.404 203.437 262.404C204.482 262.404 205.31 262.709 205.919 263.319C206.557 263.9 206.877 264.713 206.877 265.758V278.782H216.499V264.538C216.499 261.315 215.629 258.76 213.887 256.873Z" fill="#645BF9"/>
<path d="M230.142 253.54C228.698 253.574 227.598 252.474 226.498 253.54C225.174 251.468 226.626 248.299 228.698 246.974C230.45 247.221 230.896 248.075 232.845 247.725C231.867 248.934 229.91 251.353 230.142 253.54Z" fill="#59CF60" stroke="#59CF60" stroke-width="0.09" stroke-miterlimit="8.83367"/>
<path d="M233.422 278.782V254.215H223.756V278.782H233.422Z" fill="#645BF9"/>
<path d="M134.761 195.561C134.761 203.555 132.869 210.833 129.086 217.395C125.303 223.838 119.688 228.968 112.243 232.787C104.92 236.605 96.0109 238.514 85.5147 238.514H74.5305V278.782H47.6776C47.6776 278.782 47.6766 250.074 47.6768 232.787C47.6768 230.12 65.6875 224.705 69.3649 207.383C69.4054 207.181 69.433 207.054 69.4043 207.194C69.3913 207.257 69.3782 207.32 69.3649 207.383C69.3209 207.601 69.2618 207.906 69.2423 208.055C68.3195 215.073 77.167 221.283 85.5147 221.283C94.2021 221.283 114.408 217.395 114.408 195.561C114.408 169.73 91.2231 169.73 85.5147 169.73C80.8303 169.73 74.5305 174.442 74.5305 174.442C74.5305 165.077 83.9617 153.886 85.5147 152.071C101.381 152.071 113.525 156.008 121.946 163.883C130.49 171.758 134.761 182.317 134.761 195.561Z" fill="#645BF9"/>
<path d="M43.6063 215.585C45.7313 217.767 48.5544 218.858 52.0758 218.858C55.5363 218.858 58.3291 217.767 60.454 215.585C62.579 213.403 63.6415 210.657 63.6415 207.349C63.6415 203.97 62.579 201.189 60.454 199.007C58.3291 196.754 55.5363 195.628 52.0758 195.628C48.5544 195.628 45.7313 196.754 43.6063 199.007C41.4814 201.189 40.4189 203.97 40.4189 207.349C40.4189 210.657 41.4814 213.403 43.6063 215.585Z" fill="#59CF60"/>
<path d="M64.6155 186.757C55.9483 186.958 49.3509 180.359 42.7548 186.757C34.809 174.323 43.5188 155.309 55.9484 147.36C66.4678 148.841 69.1433 153.96 80.836 151.862C74.9675 159.118 63.2305 173.63 64.6155 186.757Z" fill="#59CF60" stroke="#59CF60" stroke-width="0.09" stroke-miterlimit="8.83367"/>
<path d="M107.18 250.18C107.18 248.175 105.555 246.55 103.551 246.55C101.547 246.55 99.9229 248.175 99.9229 250.18C99.9229 252.185 101.547 253.809 103.551 253.809C105.555 253.809 107.18 252.185 107.18 250.18Z" fill="#59CF60"/>
<path d="M108.384 278.774V254.209H98.7178V278.774H108.384Z" fill="#645BF9"/>
<g clip-path="url(#clip3_90_216)">
<path fill-rule="evenodd" clip-rule="evenodd" d="M163.516 163.922C163.516 157.377 168.742 152.071 175.188 152.071H224.686C231.132 152.071 236.358 157.377 236.358 163.922V200.311C236.358 206.856 231.132 212.162 224.686 212.162H196.779L180.071 224.112C176.42 226.337 171.774 223.666 171.774 219.342V211.647C166.993 210.165 163.516 205.65 163.516 200.311V163.922Z" fill="#645BF9"/>
<path d="M200.609 201.589C201.988 203.313 204.72 202.873 205.488 200.803L213.889 178.162C214.735 175.882 212.511 173.663 210.233 174.514L187.62 182.966C185.552 183.739 185.118 186.473 186.846 187.848L191.225 191.333C191.906 191.875 192.869 191.883 193.558 191.352L204.159 183.198C204.462 182.965 204.892 182.993 205.163 183.263C205.433 183.534 205.461 183.964 205.228 184.267L197.076 194.865C196.544 195.556 196.554 196.521 197.098 197.201L200.609 201.589Z" fill="#F1FCF2"/>
</g>
</g>
<path d="M31.6895 323.112C31.5695 323.112 31.4961 323.058 31.4695 322.952L27.7095 309.332L27.6895 309.272C27.6895 309.165 27.7561 309.112 27.8895 309.112H29.5095C29.6295 309.112 29.7028 309.172 29.7295 309.292L32.3495 319.252C32.3628 319.278 32.3761 319.292 32.3895 319.292C32.4161 319.292 32.4361 319.278 32.4495 319.252L34.9295 309.292C34.9561 309.172 35.0295 309.112 35.1495 309.112H36.7295C36.8495 309.112 36.9228 309.172 36.9495 309.292L39.5695 319.272C39.5828 319.298 39.5961 319.312 39.6095 319.312C39.6228 319.312 39.6361 319.298 39.6495 319.272L42.2895 309.292C42.3161 309.172 42.3895 309.112 42.5095 309.112H44.0295C44.0961 309.112 44.1428 309.132 44.1695 309.172C44.2095 309.212 44.2228 309.265 44.2095 309.332L40.5895 322.932C40.5628 323.052 40.4895 323.112 40.3695 323.112H38.8295C38.7095 323.112 38.6361 323.052 38.6095 322.932L35.9895 312.612C35.9761 312.572 35.9628 312.552 35.9495 312.552C35.9361 312.552 35.9228 312.572 35.9095 312.612L33.3695 322.932C33.3561 323.052 33.2828 323.112 33.1495 323.112H31.6895ZM50.688 312.792C51.7814 312.792 52.648 313.112 53.288 313.752C53.928 314.378 54.248 315.232 54.248 316.312V322.912C54.248 323.045 54.1814 323.112 54.048 323.112H52.528C52.3947 323.112 52.328 323.045 52.328 322.912V316.692C52.328 316.025 52.1347 315.485 51.748 315.072C51.3614 314.658 50.848 314.452 50.208 314.452C49.5814 314.452 49.068 314.658 48.668 315.072C48.268 315.485 48.068 316.018 48.068 316.672V322.912C48.068 323.045 48.0014 323.112 47.868 323.112H46.348C46.2147 323.112 46.148 323.045 46.148 322.912V309.312C46.148 309.178 46.2147 309.112 46.348 309.112H47.868C48.0014 309.112 48.068 309.178 48.068 309.312V313.852C48.068 313.878 48.0747 313.898 48.088 313.912C48.1147 313.925 48.1347 313.918 48.148 313.892C48.7214 313.158 49.568 312.792 50.688 312.792ZM65.1107 316.752C65.164 317.298 65.184 317.912 65.1707 318.592C65.1707 318.725 65.104 318.792 64.9707 318.792H58.5907C58.5374 318.792 58.5107 318.818 58.5107 318.872C58.5107 319.325 58.5507 319.672 58.6307 319.912C58.7774 320.445 59.0707 320.865 59.5107 321.172C59.964 321.465 60.5307 321.612 61.2107 321.612C62.1974 321.612 62.9574 321.205 63.4907 320.392C63.5574 320.258 63.644 320.238 63.7507 320.332L64.8907 321.092C64.984 321.172 65.004 321.258 64.9507 321.352C64.5774 321.952 64.044 322.425 63.3507 322.772C62.6707 323.118 61.8974 323.292 61.0307 323.292C60.0574 323.292 59.2374 323.078 58.5707 322.652C57.904 322.225 57.404 321.618 57.0707 320.832C56.7507 320.045 56.5907 319.092 56.5907 317.972C56.5907 316.998 56.664 316.258 56.8107 315.752C57.0507 314.832 57.5307 314.105 58.2507 313.572C58.9707 313.038 59.844 312.772 60.8707 312.772C62.2174 312.772 63.224 313.112 63.8907 313.792C64.5574 314.458 64.964 315.445 65.1107 316.752ZM60.8707 314.432C60.2974 314.432 59.824 314.578 59.4507 314.872C59.0774 315.152 58.824 315.532 58.6907 316.012C58.5974 316.305 58.5374 316.678 58.5107 317.132C58.5107 317.185 58.5374 317.212 58.5907 317.212H63.1707C63.224 317.212 63.2507 317.185 63.2507 317.132C63.224 316.692 63.184 316.365 63.1307 316.152C62.9974 315.632 62.7307 315.218 62.3307 314.912C61.944 314.592 61.4574 314.432 60.8707 314.432ZM72.0534 312.832C72.48 312.832 72.8667 312.918 73.2134 313.092C73.3067 313.132 73.34 313.212 73.3134 313.332L72.9934 314.832C72.98 314.952 72.9 314.992 72.7534 314.952C72.5267 314.858 72.26 314.812 71.9534 314.812L71.6734 314.832C71.0467 314.858 70.5267 315.078 70.1134 315.492C69.7134 315.892 69.5134 316.418 69.5134 317.072V322.912C69.5134 323.045 69.4467 323.112 69.3134 323.112H67.7934C67.66 323.112 67.5934 323.045 67.5934 322.912V313.132C67.5934 312.998 67.66 312.932 67.7934 312.932H69.3134C69.4467 312.932 69.5134 312.998 69.5134 313.132V314.192C69.5134 314.232 69.52 314.258 69.5334 314.272C69.56 314.272 69.58 314.258 69.5934 314.232C70.1934 313.298 71.0134 312.832 72.0534 312.832ZM83.099 316.752C83.1523 317.298 83.1723 317.912 83.159 318.592C83.159 318.725 83.0923 318.792 82.959 318.792H76.579C76.5257 318.792 76.499 318.818 76.499 318.872C76.499 319.325 76.539 319.672 76.619 319.912C76.7657 320.445 77.059 320.865 77.499 321.172C77.9523 321.465 78.519 321.612 79.199 321.612C80.1857 321.612 80.9457 321.205 81.479 320.392C81.5457 320.258 81.6323 320.238 81.739 320.332L82.879 321.092C82.9723 321.172 82.9923 321.258 82.939 321.352C82.5657 321.952 82.0323 322.425 81.339 322.772C80.659 323.118 79.8857 323.292 79.019 323.292C78.0457 323.292 77.2257 323.078 76.559 322.652C75.8923 322.225 75.3923 321.618 75.059 320.832C74.739 320.045 74.579 319.092 74.579 317.972C74.579 316.998 74.6523 316.258 74.799 315.752C75.039 314.832 75.519 314.105 76.239 313.572C76.959 313.038 77.8323 312.772 78.859 312.772C80.2057 312.772 81.2123 313.112 81.879 313.792C82.5457 314.458 82.9523 315.445 83.099 316.752ZM78.859 314.432C78.2857 314.432 77.8123 314.578 77.439 314.872C77.0657 315.152 76.8123 315.532 76.679 316.012C76.5857 316.305 76.5257 316.678 76.499 317.132C76.499 317.185 76.5257 317.212 76.579 317.212H81.159C81.2123 317.212 81.239 317.185 81.239 317.132C81.2123 316.692 81.1723 316.365 81.119 316.152C80.9857 315.632 80.719 315.218 80.319 314.912C79.9323 314.592 79.4457 314.432 78.859 314.432ZM97.8255 316.752C97.8789 317.298 97.8989 317.912 97.8855 318.592C97.8855 318.725 97.8189 318.792 97.6855 318.792H91.3055C91.2522 318.792 91.2255 318.818 91.2255 318.872C91.2255 319.325 91.2655 319.672 91.3455 319.912C91.4922 320.445 91.7855 320.865 92.2255 321.172C92.6789 321.465 93.2455 321.612 93.9255 321.612C94.9122 321.612 95.6722 321.205 96.2055 320.392C96.2722 320.258 96.3589 320.238 96.4655 320.332L97.6055 321.092C97.6989 321.172 97.7189 321.258 97.6655 321.352C97.2922 321.952 96.7589 322.425 96.0655 322.772C95.3855 323.118 94.6122 323.292 93.7455 323.292C92.7722 323.292 91.9522 323.078 91.2855 322.652C90.6189 322.225 90.1189 321.618 89.7855 320.832C89.4655 320.045 89.3055 319.092 89.3055 317.972C89.3055 316.998 89.3789 316.258 89.5255 315.752C89.7655 314.832 90.2455 314.105 90.9655 313.572C91.6855 313.038 92.5589 312.772 93.5855 312.772C94.9322 312.772 95.9389 313.112 96.6055 313.792C97.2722 314.458 97.6789 315.445 97.8255 316.752ZM93.5855 314.432C93.0122 314.432 92.5389 314.578 92.1655 314.872C91.7922 315.152 91.5389 315.532 91.4055 316.012C91.3122 316.305 91.2522 316.678 91.2255 317.132C91.2255 317.185 91.2522 317.212 91.3055 317.212H95.8855C95.9389 317.212 95.9655 317.185 95.9655 317.132C95.9389 316.692 95.8989 316.365 95.8455 316.152C95.7122 315.632 95.4455 315.218 95.0455 314.912C94.6589 314.592 94.1722 314.432 93.5855 314.432ZM102.637 323.112C102.517 323.112 102.437 323.058 102.397 322.952L99.1366 313.152L99.1166 313.072C99.1166 312.978 99.1766 312.932 99.2966 312.932H100.977C101.097 312.932 101.177 312.985 101.217 313.092L103.417 320.332C103.43 320.358 103.45 320.372 103.477 320.372C103.503 320.372 103.523 320.358 103.537 320.332L105.717 313.092C105.757 312.985 105.837 312.932 105.957 312.932L107.637 312.952C107.783 312.952 107.837 313.025 107.797 313.172L104.557 322.952C104.517 323.058 104.437 323.112 104.317 323.112H102.637ZM117.572 316.752C117.625 317.298 117.645 317.912 117.632 318.592C117.632 318.725 117.565 318.792 117.432 318.792H111.052C110.998 318.792 110.972 318.818 110.972 318.872C110.972 319.325 111.012 319.672 111.092 319.912C111.238 320.445 111.532 320.865 111.972 321.172C112.425 321.465 112.992 321.612 113.672 321.612C114.658 321.612 115.418 321.205 115.952 320.392C116.018 320.258 116.105 320.238 116.212 320.332L117.352 321.092C117.445 321.172 117.465 321.258 117.412 321.352C117.038 321.952 116.505 322.425 115.812 322.772C115.132 323.118 114.358 323.292 113.492 323.292C112.518 323.292 111.698 323.078 111.032 322.652C110.365 322.225 109.865 321.618 109.532 320.832C109.212 320.045 109.052 319.092 109.052 317.972C109.052 316.998 109.125 316.258 109.272 315.752C109.512 314.832 109.992 314.105 110.712 313.572C111.432 313.038 112.305 312.772 113.332 312.772C114.678 312.772 115.685 313.112 116.352 313.792C117.018 314.458 117.425 315.445 117.572 316.752ZM113.332 314.432C112.758 314.432 112.285 314.578 111.912 314.872C111.538 315.152 111.285 315.532 111.152 316.012C111.058 316.305 110.998 316.678 110.972 317.132C110.972 317.185 110.998 317.212 111.052 317.212H115.632C115.685 317.212 115.712 317.185 115.712 317.132C115.685 316.692 115.645 316.365 115.592 316.152C115.458 315.632 115.192 315.218 114.792 314.912C114.405 314.592 113.918 314.432 113.332 314.432ZM124.514 312.832C124.941 312.832 125.328 312.918 125.674 313.092C125.768 313.132 125.801 313.212 125.774 313.332L125.454 314.832C125.441 314.952 125.361 314.992 125.214 314.952C124.988 314.858 124.721 314.812 124.414 314.812L124.134 314.832C123.508 314.858 122.988 315.078 122.574 315.492C122.174 315.892 121.974 316.418 121.974 317.072V322.912C121.974 323.045 121.908 323.112 121.774 323.112H120.254C120.121 323.112 120.054 323.045 120.054 322.912V313.132C120.054 312.998 120.121 312.932 120.254 312.932H121.774C121.908 312.932 121.974 312.998 121.974 313.132V314.192C121.974 314.232 121.981 314.258 121.994 314.272C122.021 314.272 122.041 314.258 122.054 314.232C122.654 313.298 123.474 312.832 124.514 312.832ZM127.625 327.092C127.532 327.092 127.485 327.025 127.485 326.892V325.712C127.485 325.578 127.552 325.512 127.685 325.512H127.725C128.259 325.498 128.679 325.432 128.985 325.312C129.292 325.192 129.545 324.965 129.745 324.632C129.945 324.312 130.139 323.825 130.325 323.172C130.339 323.158 130.339 323.138 130.325 323.112C130.325 323.072 130.325 323.052 130.325 323.052L126.985 313.152L126.965 313.072C126.965 312.978 127.025 312.932 127.145 312.932H128.765C128.885 312.932 128.965 312.985 129.005 313.092L131.265 320.632C131.279 320.658 131.299 320.672 131.325 320.672C131.352 320.672 131.372 320.658 131.385 320.632L133.625 313.092C133.665 312.985 133.745 312.932 133.865 312.932H135.445C135.592 312.932 135.645 313.005 135.605 313.152L131.965 323.812C131.659 324.732 131.352 325.412 131.045 325.852C130.739 326.305 130.339 326.625 129.845 326.812C129.352 326.998 128.659 327.092 127.765 327.092H127.625ZM250.55 311.332C250.177 311.332 249.87 311.212 249.63 310.972C249.39 310.732 249.27 310.425 249.27 310.052C249.27 309.678 249.39 309.372 249.63 309.132C249.87 308.892 250.177 308.772 250.55 308.772C250.924 308.772 251.23 308.892 251.47 309.132C251.71 309.372 251.83 309.678 251.83 310.052C251.83 310.425 251.71 310.732 251.47 310.972C251.23 311.212 250.924 311.332 250.55 311.332ZM249.75 323.092C249.617 323.092 249.55 323.025 249.55 322.892V313.132C249.55 312.998 249.617 312.932 249.75 312.932H251.27C251.404 312.932 251.47 312.998 251.47 313.132V322.892C251.47 323.025 251.404 323.092 251.27 323.092H249.75ZM258.068 323.232C257.268 323.232 256.561 323.112 255.948 322.872C255.348 322.632 254.881 322.305 254.548 321.892C254.215 321.465 254.048 320.998 254.048 320.492V320.272C254.048 320.138 254.115 320.072 254.248 320.072H255.688C255.821 320.072 255.888 320.138 255.888 320.272V320.372C255.888 320.745 256.088 321.072 256.488 321.352C256.901 321.632 257.421 321.772 258.048 321.772C258.648 321.772 259.135 321.645 259.508 321.392C259.881 321.125 260.068 320.792 260.068 320.392C260.068 320.005 259.895 319.718 259.548 319.532C259.201 319.332 258.641 319.125 257.868 318.912C257.108 318.698 256.468 318.485 255.948 318.272C255.441 318.045 255.008 317.732 254.648 317.332C254.301 316.918 254.128 316.392 254.128 315.752C254.128 314.858 254.475 314.152 255.168 313.632C255.875 313.098 256.808 312.832 257.968 312.832C258.741 312.832 259.421 312.958 260.008 313.212C260.608 313.452 261.068 313.792 261.388 314.232C261.708 314.672 261.868 315.165 261.868 315.712V315.772C261.868 315.905 261.801 315.972 261.668 315.972H260.268C260.135 315.972 260.068 315.905 260.068 315.772V315.712C260.068 315.325 259.875 315.005 259.488 314.752C259.115 314.485 258.601 314.352 257.948 314.352C257.361 314.352 256.881 314.465 256.508 314.692C256.148 314.918 255.968 315.225 255.968 315.612C255.968 315.998 256.141 316.292 256.488 316.492C256.848 316.692 257.421 316.905 258.208 317.132C258.981 317.345 259.621 317.558 260.128 317.772C260.648 317.972 261.088 318.278 261.448 318.692C261.808 319.092 261.988 319.618 261.988 320.272C261.988 321.178 261.628 321.898 260.908 322.432C260.201 322.965 259.255 323.232 258.068 323.232ZM271.958 312.772C272.771 312.772 273.478 312.918 274.078 313.212C274.691 313.492 275.158 313.892 275.478 314.412C275.811 314.918 275.978 315.498 275.978 316.152V322.912C275.978 323.045 275.911 323.112 275.778 323.112H274.258C274.125 323.112 274.058 323.045 274.058 322.912V322.192C274.058 322.125 274.025 322.112 273.958 322.152C273.611 322.512 273.185 322.792 272.678 322.992C272.185 323.178 271.631 323.272 271.018 323.272C270.031 323.272 269.211 323.025 268.558 322.532C267.918 322.025 267.598 321.265 267.598 320.252C267.598 319.212 267.958 318.398 268.678 317.812C269.411 317.212 270.431 316.912 271.738 316.912H273.978C274.031 316.912 274.058 316.885 274.058 316.832V316.292C274.058 315.705 273.885 315.252 273.538 314.932C273.205 314.598 272.691 314.432 271.998 314.432C271.438 314.432 270.978 314.545 270.618 314.772C270.271 314.985 270.058 315.278 269.978 315.652C269.938 315.785 269.858 315.845 269.738 315.832L268.118 315.612C267.985 315.585 267.925 315.532 267.938 315.452C268.045 314.665 268.465 314.025 269.198 313.532C269.931 313.025 270.851 312.772 271.958 312.772ZM271.438 321.652C272.145 321.652 272.758 321.465 273.278 321.092C273.798 320.718 274.058 320.245 274.058 319.672V318.492C274.058 318.438 274.031 318.412 273.978 318.412H272.098C271.311 318.412 270.685 318.565 270.218 318.872C269.751 319.178 269.518 319.605 269.518 320.152C269.518 320.645 269.691 321.018 270.038 321.272C270.398 321.525 270.865 321.652 271.438 321.652Z" fill="#645BF9"/>
<path d="M150.581 309.112C150.714 309.112 150.781 309.178 150.781 309.312V310.592C150.781 310.725 150.714 310.792 150.581 310.792H146.741C146.688 310.792 146.661 310.818 146.661 310.872V322.912C146.661 323.045 146.594 323.112 146.461 323.112H144.941C144.808 323.112 144.741 323.045 144.741 322.912V310.872C144.741 310.818 144.714 310.792 144.661 310.792H141.001C140.868 310.792 140.801 310.725 140.801 310.592V309.312C140.801 309.178 140.868 309.112 141.001 309.112H150.581ZM156.311 312.832C156.738 312.832 157.125 312.918 157.471 313.092C157.565 313.132 157.598 313.212 157.571 313.332L157.251 314.832C157.238 314.952 157.158 314.992 157.011 314.952C156.785 314.858 156.518 314.812 156.211 314.812L155.931 314.832C155.305 314.858 154.785 315.078 154.371 315.492C153.971 315.892 153.771 316.418 153.771 317.072V322.912C153.771 323.045 153.705 323.112 153.571 323.112H152.051C151.918 323.112 151.851 323.045 151.851 322.912V313.132C151.851 312.998 151.918 312.932 152.051 312.932H153.571C153.705 312.932 153.771 312.998 153.771 313.132V314.192C153.771 314.232 153.778 314.258 153.791 314.272C153.818 314.272 153.838 314.258 153.851 314.232C154.451 313.298 155.271 312.832 156.311 312.832ZM162.915 312.772C163.728 312.772 164.435 312.918 165.035 313.212C165.648 313.492 166.115 313.892 166.435 314.412C166.768 314.918 166.935 315.498 166.935 316.152V322.912C166.935 323.045 166.868 323.112 166.735 323.112H165.215C165.082 323.112 165.015 323.045 165.015 322.912V322.192C165.015 322.125 164.982 322.112 164.915 322.152C164.568 322.512 164.142 322.792 163.635 322.992C163.142 323.178 162.588 323.272 161.975 323.272C160.988 323.272 160.168 323.025 159.515 322.532C158.875 322.025 158.555 321.265 158.555 320.252C158.555 319.212 158.915 318.398 159.635 317.812C160.368 317.212 161.388 316.912 162.695 316.912H164.935C164.988 316.912 165.015 316.885 165.015 316.832V316.292C165.015 315.705 164.842 315.252 164.495 314.932C164.162 314.598 163.648 314.432 162.955 314.432C162.395 314.432 161.935 314.545 161.575 314.772C161.228 314.985 161.015 315.278 160.935 315.652C160.895 315.785 160.815 315.845 160.695 315.832L159.075 315.612C158.942 315.585 158.882 315.532 158.895 315.452C159.002 314.665 159.422 314.025 160.155 313.532C160.888 313.025 161.808 312.772 162.915 312.772ZM162.395 321.652C163.102 321.652 163.715 321.465 164.235 321.092C164.755 320.718 165.015 320.245 165.015 319.672V318.492C165.015 318.438 164.988 318.412 164.935 318.412H163.055C162.268 318.412 161.642 318.565 161.175 318.872C160.708 319.178 160.475 319.605 160.475 320.152C160.475 320.645 160.648 321.018 160.995 321.272C161.355 321.525 161.822 321.652 162.395 321.652ZM174.067 312.792C175.16 312.792 176.027 313.112 176.667 313.752C177.307 314.378 177.627 315.232 177.627 316.312V322.912C177.627 323.045 177.56 323.112 177.427 323.112H175.907C175.774 323.112 175.707 323.045 175.707 322.912V316.692C175.707 316.025 175.514 315.485 175.127 315.072C174.74 314.658 174.227 314.452 173.587 314.452C172.96 314.452 172.447 314.658 172.047 315.072C171.647 315.485 171.447 316.018 171.447 316.672V322.912C171.447 323.045 171.38 323.112 171.247 323.112H169.727C169.594 323.112 169.527 323.045 169.527 322.912V313.132C169.527 312.998 169.594 312.932 169.727 312.932H171.247C171.38 312.932 171.447 312.998 171.447 313.132V313.852C171.447 313.878 171.454 313.898 171.467 313.912C171.494 313.925 171.514 313.918 171.527 313.892C172.1 313.158 172.947 312.792 174.067 312.792ZM183.947 323.232C183.147 323.232 182.44 323.112 181.827 322.872C181.227 322.632 180.76 322.305 180.427 321.892C180.093 321.465 179.927 320.998 179.927 320.492V320.272C179.927 320.138 179.993 320.072 180.127 320.072H181.567C181.7 320.072 181.767 320.138 181.767 320.272V320.372C181.767 320.745 181.967 321.072 182.367 321.352C182.78 321.632 183.3 321.772 183.927 321.772C184.527 321.772 185.013 321.645 185.387 321.392C185.76 321.125 185.947 320.792 185.947 320.392C185.947 320.005 185.773 319.718 185.427 319.532C185.08 319.332 184.52 319.125 183.747 318.912C182.987 318.698 182.347 318.485 181.827 318.272C181.32 318.045 180.887 317.732 180.527 317.332C180.18 316.918 180.007 316.392 180.007 315.752C180.007 314.858 180.353 314.152 181.047 313.632C181.753 313.098 182.687 312.832 183.847 312.832C184.62 312.832 185.3 312.958 185.887 313.212C186.487 313.452 186.947 313.792 187.267 314.232C187.587 314.672 187.747 315.165 187.747 315.712V315.772C187.747 315.905 187.68 315.972 187.547 315.972H186.147C186.013 315.972 185.947 315.905 185.947 315.772V315.712C185.947 315.325 185.753 315.005 185.367 314.752C184.993 314.485 184.48 314.352 183.827 314.352C183.24 314.352 182.76 314.465 182.387 314.692C182.027 314.918 181.847 315.225 181.847 315.612C181.847 315.998 182.02 316.292 182.367 316.492C182.727 316.692 183.3 316.905 184.087 317.132C184.86 317.345 185.5 317.558 186.007 317.772C186.527 317.972 186.967 318.278 187.327 318.692C187.687 319.092 187.867 319.618 187.867 320.272C187.867 321.178 187.507 321.898 186.787 322.432C186.08 322.965 185.133 323.232 183.947 323.232ZM193.833 312.772C194.646 312.772 195.353 312.918 195.953 313.212C196.566 313.492 197.033 313.892 197.353 314.412C197.686 314.918 197.853 315.498 197.853 316.152V322.912C197.853 323.045 197.786 323.112 197.653 323.112H196.133C196 323.112 195.933 323.045 195.933 322.912V322.192C195.933 322.125 195.9 322.112 195.833 322.152C195.486 322.512 195.06 322.792 194.553 322.992C194.06 323.178 193.506 323.272 192.893 323.272C191.906 323.272 191.086 323.025 190.433 322.532C189.793 322.025 189.473 321.265 189.473 320.252C189.473 319.212 189.833 318.398 190.553 317.812C191.286 317.212 192.306 316.912 193.613 316.912H195.853C195.906 316.912 195.933 316.885 195.933 316.832V316.292C195.933 315.705 195.76 315.252 195.413 314.932C195.08 314.598 194.566 314.432 193.873 314.432C193.313 314.432 192.853 314.545 192.493 314.772C192.146 314.985 191.933 315.278 191.853 315.652C191.813 315.785 191.733 315.845 191.613 315.832L189.993 315.612C189.86 315.585 189.8 315.532 189.813 315.452C189.92 314.665 190.34 314.025 191.073 313.532C191.806 313.025 192.726 312.772 193.833 312.772ZM193.313 321.652C194.02 321.652 194.633 321.465 195.153 321.092C195.673 320.718 195.933 320.245 195.933 319.672V318.492C195.933 318.438 195.906 318.412 195.853 318.412H193.973C193.186 318.412 192.56 318.565 192.093 318.872C191.626 319.178 191.393 319.605 191.393 320.152C191.393 320.645 191.566 321.018 191.913 321.272C192.273 321.525 192.74 321.652 193.313 321.652ZM204.525 323.272C203.512 323.272 202.645 323.018 201.925 322.512C201.205 321.992 200.712 321.292 200.445 320.412C200.245 319.798 200.145 318.992 200.145 317.992C200.145 317.072 200.245 316.265 200.445 315.572C200.712 314.718 201.205 314.038 201.925 313.532C202.658 313.025 203.525 312.772 204.525 312.772C205.525 312.772 206.398 313.025 207.145 313.532C207.892 314.038 208.378 314.678 208.605 315.452C208.685 315.665 208.738 315.885 208.765 316.112C208.765 316.218 208.705 316.285 208.585 316.312L207.085 316.532H207.045C206.952 316.532 206.885 316.472 206.845 316.352L206.785 316.032C206.678 315.578 206.418 315.198 206.005 314.892C205.592 314.585 205.092 314.432 204.505 314.432C203.932 314.432 203.445 314.585 203.045 314.892C202.645 315.198 202.385 315.605 202.265 316.112C202.145 316.592 202.085 317.225 202.085 318.012C202.085 318.785 202.145 319.412 202.265 319.892C202.398 320.425 202.658 320.845 203.045 321.152C203.445 321.458 203.932 321.612 204.505 321.612C205.092 321.612 205.592 321.458 206.005 321.152C206.432 320.845 206.698 320.445 206.805 319.952C206.818 319.938 206.818 319.925 206.805 319.912C206.805 319.885 206.812 319.865 206.825 319.852V319.772C206.865 319.665 206.938 319.625 207.045 319.652L208.545 319.892C208.652 319.918 208.705 319.972 208.705 320.052V320.132C208.705 320.252 208.672 320.398 208.605 320.572C208.378 321.385 207.892 322.038 207.145 322.532C206.398 323.025 205.525 323.272 204.525 323.272ZM215.992 314.312C215.992 314.445 215.926 314.512 215.792 314.512H213.632C213.579 314.512 213.552 314.538 213.552 314.592V319.892C213.552 320.452 213.679 320.858 213.932 321.112C214.186 321.352 214.579 321.472 215.112 321.472H215.692C215.826 321.472 215.892 321.538 215.892 321.672V322.912C215.892 323.045 215.826 323.112 215.692 323.112C215.266 323.138 214.959 323.152 214.772 323.152C213.759 323.152 212.992 322.972 212.472 322.612C211.966 322.238 211.712 321.558 211.712 320.572V314.592C211.712 314.538 211.686 314.512 211.632 314.512H210.412C210.279 314.512 210.212 314.445 210.212 314.312V313.132C210.212 312.998 210.279 312.932 210.412 312.932H211.632C211.686 312.932 211.712 312.905 211.712 312.852V310.492C211.712 310.358 211.779 310.292 211.912 310.292H213.352C213.486 310.292 213.552 310.358 213.552 310.492V312.852C213.552 312.905 213.579 312.932 213.632 312.932H215.792C215.926 312.932 215.992 312.998 215.992 313.132V314.312ZM219.515 311.332C219.142 311.332 218.835 311.212 218.595 310.972C218.355 310.732 218.235 310.425 218.235 310.052C218.235 309.678 218.355 309.372 218.595 309.132C218.835 308.892 219.142 308.772 219.515 308.772C219.888 308.772 220.195 308.892 220.435 309.132C220.675 309.372 220.795 309.678 220.795 310.052C220.795 310.425 220.675 310.732 220.435 310.972C220.195 311.212 219.888 311.332 219.515 311.332ZM218.715 323.092C218.582 323.092 218.515 323.025 218.515 322.892V313.132C218.515 312.998 218.582 312.932 218.715 312.932H220.235C220.368 312.932 220.435 312.998 220.435 313.132V322.892C220.435 323.025 220.368 323.092 220.235 323.092H218.715ZM227.613 323.272C226.626 323.272 225.766 323.025 225.033 322.532C224.299 322.025 223.786 321.325 223.493 320.432C223.253 319.712 223.133 318.898 223.133 317.992C223.133 317.045 223.246 316.245 223.473 315.592C223.766 314.712 224.279 314.025 225.013 313.532C225.746 313.025 226.619 312.772 227.633 312.772C228.593 312.772 229.426 313.025 230.133 313.532C230.853 314.025 231.366 314.705 231.673 315.572C231.913 316.252 232.033 317.052 232.033 317.972C232.033 318.905 231.913 319.725 231.673 320.432C231.379 321.325 230.873 322.025 230.153 322.532C229.433 323.025 228.586 323.272 227.613 323.272ZM227.613 321.612C228.146 321.612 228.613 321.465 229.013 321.172C229.413 320.865 229.699 320.438 229.873 319.892C230.019 319.385 230.093 318.758 230.093 318.012C230.093 317.265 230.026 316.645 229.893 316.152C229.719 315.605 229.433 315.185 229.033 314.892C228.633 314.585 228.146 314.432 227.573 314.432C227.026 314.432 226.553 314.585 226.153 314.892C225.753 315.185 225.466 315.605 225.293 316.152C225.146 316.618 225.073 317.238 225.073 318.012C225.073 318.785 225.146 319.412 225.293 319.892C225.453 320.438 225.733 320.865 226.133 321.172C226.546 321.465 227.039 321.612 227.613 321.612ZM239.086 312.792C240.18 312.792 241.046 313.112 241.686 313.752C242.326 314.378 242.646 315.232 242.646 316.312V322.912C242.646 323.045 242.58 323.112 242.446 323.112H240.926C240.793 323.112 240.726 323.045 240.726 322.912V316.692C240.726 316.025 240.533 315.485 240.146 315.072C239.76 314.658 239.246 314.452 238.606 314.452C237.98 314.452 237.466 314.658 237.066 315.072C236.666 315.485 236.466 316.018 236.466 316.672V322.912C236.466 323.045 236.4 323.112 236.266 323.112H234.746C234.613 323.112 234.546 323.045 234.546 322.912V313.132C234.546 312.998 234.613 312.932 234.746 312.932H236.266C236.4 312.932 236.466 312.998 236.466 313.132V313.852C236.466 313.878 236.473 313.898 236.486 313.912C236.513 313.925 236.533 313.918 236.546 313.892C237.12 313.158 237.966 312.792 239.086 312.792ZM100.536 347.292C99.5765 347.292 98.7232 347.105 97.9765 346.732C97.2432 346.345 96.6698 345.805 96.2565 345.112C95.8565 344.405 95.6565 343.598 95.6565 342.692V337.512C95.6565 336.605 95.8565 335.812 96.2565 335.132C96.6698 334.438 97.2432 333.905 97.9765 333.532C98.7232 333.145 99.5765 332.952 100.536 332.952C101.496 332.952 102.343 333.138 103.076 333.512C103.81 333.872 104.376 334.385 104.776 335.052C105.19 335.718 105.396 336.492 105.396 337.372V337.392C105.396 337.458 105.376 337.512 105.336 337.552C105.296 337.592 105.25 337.612 105.196 337.612L103.676 337.692C103.543 337.692 103.476 337.632 103.476 337.512V337.452C103.476 336.598 103.21 335.912 102.676 335.392C102.143 334.872 101.43 334.612 100.536 334.612C99.6432 334.612 98.9232 334.872 98.3765 335.392C97.8432 335.912 97.5765 336.598 97.5765 337.452V342.772C97.5765 343.625 97.8432 344.312 98.3765 344.832C98.9232 345.352 99.6432 345.612 100.536 345.612C101.43 345.612 102.143 345.352 102.676 344.832C103.21 344.312 103.476 343.625 103.476 342.772V342.732C103.476 342.612 103.543 342.552 103.676 342.552L105.196 342.632C105.33 342.632 105.396 342.698 105.396 342.832C105.396 343.712 105.19 344.492 104.776 345.172C104.376 345.838 103.81 346.358 103.076 346.732C102.343 347.105 101.496 347.292 100.536 347.292ZM112.085 347.272C111.099 347.272 110.239 347.025 109.505 346.532C108.772 346.025 108.259 345.325 107.965 344.432C107.725 343.712 107.605 342.898 107.605 341.992C107.605 341.045 107.719 340.245 107.945 339.592C108.239 338.712 108.752 338.025 109.485 337.532C110.219 337.025 111.092 336.772 112.105 336.772C113.065 336.772 113.899 337.025 114.605 337.532C115.325 338.025 115.839 338.705 116.145 339.572C116.385 340.252 116.505 341.052 116.505 341.972C116.505 342.905 116.385 343.725 116.145 344.432C115.852 345.325 115.345 346.025 114.625 346.532C113.905 347.025 113.059 347.272 112.085 347.272ZM112.085 345.612C112.619 345.612 113.085 345.465 113.485 345.172C113.885 344.865 114.172 344.438 114.345 343.892C114.492 343.385 114.565 342.758 114.565 342.012C114.565 341.265 114.499 340.645 114.365 340.152C114.192 339.605 113.905 339.185 113.505 338.892C113.105 338.585 112.619 338.432 112.045 338.432C111.499 338.432 111.025 338.585 110.625 338.892C110.225 339.185 109.939 339.605 109.765 340.152C109.619 340.618 109.545 341.238 109.545 342.012C109.545 342.785 109.619 343.412 109.765 343.892C109.925 344.438 110.205 344.865 110.605 345.172C111.019 345.465 111.512 345.612 112.085 345.612ZM123.559 336.792C124.652 336.792 125.519 337.112 126.159 337.752C126.799 338.378 127.119 339.232 127.119 340.312V346.912C127.119 347.045 127.052 347.112 126.919 347.112H125.399C125.266 347.112 125.199 347.045 125.199 346.912V340.692C125.199 340.025 125.006 339.485 124.619 339.072C124.232 338.658 123.719 338.452 123.079 338.452C122.452 338.452 121.939 338.658 121.539 339.072C121.139 339.485 120.939 340.018 120.939 340.672V346.912C120.939 347.045 120.872 347.112 120.739 347.112H119.219C119.086 347.112 119.019 347.045 119.019 346.912V337.132C119.019 336.998 119.086 336.932 119.219 336.932H120.739C120.872 336.932 120.939 336.998 120.939 337.132V337.852C120.939 337.878 120.946 337.898 120.959 337.912C120.986 337.925 121.006 337.918 121.019 337.892C121.592 337.158 122.439 336.792 123.559 336.792ZM132.266 347.112C132.146 347.112 132.066 347.058 132.026 346.952L128.766 337.152L128.746 337.072C128.746 336.978 128.806 336.932 128.926 336.932H130.606C130.726 336.932 130.806 336.985 130.846 337.092L133.046 344.332C133.059 344.358 133.079 344.372 133.106 344.372C133.132 344.372 133.152 344.358 133.166 344.332L135.346 337.092C135.386 336.985 135.466 336.932 135.586 336.932L137.266 336.952C137.412 336.952 137.466 337.025 137.426 337.172L134.186 346.952C134.146 347.058 134.066 347.112 133.946 347.112H132.266ZM147.201 340.752C147.254 341.298 147.274 341.912 147.261 342.592C147.261 342.725 147.194 342.792 147.061 342.792H140.681C140.627 342.792 140.601 342.818 140.601 342.872C140.601 343.325 140.641 343.672 140.721 343.912C140.867 344.445 141.161 344.865 141.601 345.172C142.054 345.465 142.621 345.612 143.301 345.612C144.287 345.612 145.047 345.205 145.581 344.392C145.647 344.258 145.734 344.238 145.841 344.332L146.981 345.092C147.074 345.172 147.094 345.258 147.041 345.352C146.667 345.952 146.134 346.425 145.441 346.772C144.761 347.118 143.987 347.292 143.121 347.292C142.147 347.292 141.327 347.078 140.661 346.652C139.994 346.225 139.494 345.618 139.161 344.832C138.841 344.045 138.681 343.092 138.681 341.972C138.681 340.998 138.754 340.258 138.901 339.752C139.141 338.832 139.621 338.105 140.341 337.572C141.061 337.038 141.934 336.772 142.961 336.772C144.307 336.772 145.314 337.112 145.981 337.792C146.647 338.458 147.054 339.445 147.201 340.752ZM142.961 338.432C142.387 338.432 141.914 338.578 141.541 338.872C141.167 339.152 140.914 339.532 140.781 340.012C140.687 340.305 140.627 340.678 140.601 341.132C140.601 341.185 140.627 341.212 140.681 341.212H145.261C145.314 341.212 145.341 341.185 145.341 341.132C145.314 340.692 145.274 340.365 145.221 340.152C145.087 339.632 144.821 339.218 144.421 338.912C144.034 338.592 143.547 338.432 142.961 338.432ZM154.143 336.832C154.57 336.832 154.957 336.918 155.303 337.092C155.397 337.132 155.43 337.212 155.403 337.332L155.083 338.832C155.07 338.952 154.99 338.992 154.843 338.952C154.617 338.858 154.35 338.812 154.043 338.812L153.763 338.832C153.137 338.858 152.617 339.078 152.203 339.492C151.803 339.892 151.603 340.418 151.603 341.072V346.912C151.603 347.045 151.537 347.112 151.403 347.112H149.883C149.75 347.112 149.683 347.045 149.683 346.912V337.132C149.683 336.998 149.75 336.932 149.883 336.932H151.403C151.537 336.932 151.603 336.998 151.603 337.132V338.192C151.603 338.232 151.61 338.258 151.623 338.272C151.65 338.272 151.67 338.258 151.683 338.232C152.283 337.298 153.103 336.832 154.143 336.832ZM160.587 347.232C159.787 347.232 159.081 347.112 158.467 346.872C157.867 346.632 157.401 346.305 157.067 345.892C156.734 345.465 156.567 344.998 156.567 344.492V344.272C156.567 344.138 156.634 344.072 156.767 344.072H158.207C158.341 344.072 158.407 344.138 158.407 344.272V344.372C158.407 344.745 158.607 345.072 159.007 345.352C159.421 345.632 159.941 345.772 160.567 345.772C161.167 345.772 161.654 345.645 162.027 345.392C162.401 345.125 162.587 344.792 162.587 344.392C162.587 344.005 162.414 343.718 162.067 343.532C161.721 343.332 161.161 343.125 160.387 342.912C159.627 342.698 158.987 342.485 158.467 342.272C157.961 342.045 157.527 341.732 157.167 341.332C156.821 340.918 156.647 340.392 156.647 339.752C156.647 338.858 156.994 338.152 157.687 337.632C158.394 337.098 159.327 336.832 160.487 336.832C161.261 336.832 161.941 336.958 162.527 337.212C163.127 337.452 163.587 337.792 163.907 338.232C164.227 338.672 164.387 339.165 164.387 339.712V339.772C164.387 339.905 164.321 339.972 164.187 339.972H162.787C162.654 339.972 162.587 339.905 162.587 339.772V339.712C162.587 339.325 162.394 339.005 162.007 338.752C161.634 338.485 161.121 338.352 160.467 338.352C159.881 338.352 159.401 338.465 159.027 338.692C158.667 338.918 158.487 339.225 158.487 339.612C158.487 339.998 158.661 340.292 159.007 340.492C159.367 340.692 159.941 340.905 160.727 341.132C161.501 341.345 162.141 341.558 162.647 341.772C163.167 341.972 163.607 342.278 163.967 342.692C164.327 343.092 164.507 343.618 164.507 344.272C164.507 345.178 164.147 345.898 163.427 346.432C162.721 346.965 161.774 347.232 160.587 347.232ZM170.474 336.772C171.287 336.772 171.994 336.918 172.594 337.212C173.207 337.492 173.674 337.892 173.994 338.412C174.327 338.918 174.494 339.498 174.494 340.152V346.912C174.494 347.045 174.427 347.112 174.294 347.112H172.774C172.64 347.112 172.574 347.045 172.574 346.912V346.192C172.574 346.125 172.54 346.112 172.474 346.152C172.127 346.512 171.7 346.792 171.194 346.992C170.7 347.178 170.147 347.272 169.534 347.272C168.547 347.272 167.727 347.025 167.074 346.532C166.434 346.025 166.114 345.265 166.114 344.252C166.114 343.212 166.474 342.398 167.194 341.812C167.927 341.212 168.947 340.912 170.254 340.912H172.494C172.547 340.912 172.574 340.885 172.574 340.832V340.292C172.574 339.705 172.4 339.252 172.054 338.932C171.72 338.598 171.207 338.432 170.514 338.432C169.954 338.432 169.494 338.545 169.134 338.772C168.787 338.985 168.574 339.278 168.494 339.652C168.454 339.785 168.374 339.845 168.254 339.832L166.634 339.612C166.5 339.585 166.44 339.532 166.454 339.452C166.56 338.665 166.98 338.025 167.714 337.532C168.447 337.025 169.367 336.772 170.474 336.772ZM169.954 345.652C170.66 345.652 171.274 345.465 171.794 345.092C172.314 344.718 172.574 344.245 172.574 343.672V342.492C172.574 342.438 172.547 342.412 172.494 342.412H170.614C169.827 342.412 169.2 342.565 168.734 342.872C168.267 343.178 168.034 343.605 168.034 344.152C168.034 344.645 168.207 345.018 168.554 345.272C168.914 345.525 169.38 345.652 169.954 345.652ZM181.969 338.312C181.969 338.445 181.902 338.512 181.769 338.512H179.609C179.555 338.512 179.529 338.538 179.529 338.592V343.892C179.529 344.452 179.655 344.858 179.909 345.112C180.162 345.352 180.555 345.472 181.089 345.472H181.669C181.802 345.472 181.869 345.538 181.869 345.672V346.912C181.869 347.045 181.802 347.112 181.669 347.112C181.242 347.138 180.935 347.152 180.749 347.152C179.735 347.152 178.969 346.972 178.449 346.612C177.942 346.238 177.689 345.558 177.689 344.572V338.592C177.689 338.538 177.662 338.512 177.609 338.512H176.389C176.255 338.512 176.189 338.445 176.189 338.312V337.132C176.189 336.998 176.255 336.932 176.389 336.932H177.609C177.662 336.932 177.689 336.905 177.689 336.852V334.492C177.689 334.358 177.755 334.292 177.889 334.292H179.329C179.462 334.292 179.529 334.358 179.529 334.492V336.852C179.529 336.905 179.555 336.932 179.609 336.932H181.769C181.902 336.932 181.969 336.998 181.969 337.132V338.312ZM185.492 335.332C185.118 335.332 184.812 335.212 184.572 334.972C184.332 334.732 184.212 334.425 184.212 334.052C184.212 333.678 184.332 333.372 184.572 333.132C184.812 332.892 185.118 332.772 185.492 332.772C185.865 332.772 186.172 332.892 186.412 333.132C186.652 333.372 186.772 333.678 186.772 334.052C186.772 334.425 186.652 334.732 186.412 334.972C186.172 335.212 185.865 335.332 185.492 335.332ZM184.692 347.092C184.558 347.092 184.492 347.025 184.492 346.892V337.132C184.492 336.998 184.558 336.932 184.692 336.932H186.212C186.345 336.932 186.412 336.998 186.412 337.132V346.892C186.412 347.025 186.345 347.092 186.212 347.092H184.692ZM193.589 347.272C192.603 347.272 191.743 347.025 191.009 346.532C190.276 346.025 189.763 345.325 189.469 344.432C189.229 343.712 189.109 342.898 189.109 341.992C189.109 341.045 189.223 340.245 189.449 339.592C189.743 338.712 190.256 338.025 190.989 337.532C191.723 337.025 192.596 336.772 193.609 336.772C194.569 336.772 195.403 337.025 196.109 337.532C196.829 338.025 197.343 338.705 197.649 339.572C197.889 340.252 198.009 341.052 198.009 341.972C198.009 342.905 197.889 343.725 197.649 344.432C197.356 345.325 196.849 346.025 196.129 346.532C195.409 347.025 194.563 347.272 193.589 347.272ZM193.589 345.612C194.123 345.612 194.589 345.465 194.989 345.172C195.389 344.865 195.676 344.438 195.849 343.892C195.996 343.385 196.069 342.758 196.069 342.012C196.069 341.265 196.003 340.645 195.869 340.152C195.696 339.605 195.409 339.185 195.009 338.892C194.609 338.585 194.123 338.432 193.549 338.432C193.003 338.432 192.529 338.585 192.129 338.892C191.729 339.185 191.443 339.605 191.269 340.152C191.123 340.618 191.049 341.238 191.049 342.012C191.049 342.785 191.123 343.412 191.269 343.892C191.429 344.438 191.709 344.865 192.109 345.172C192.523 345.465 193.016 345.612 193.589 345.612ZM205.063 336.792C206.156 336.792 207.023 337.112 207.663 337.752C208.303 338.378 208.623 339.232 208.623 340.312V346.912C208.623 347.045 208.556 347.112 208.423 347.112H206.903C206.77 347.112 206.703 347.045 206.703 346.912V340.692C206.703 340.025 206.51 339.485 206.123 339.072C205.736 338.658 205.223 338.452 204.583 338.452C203.956 338.452 203.443 338.658 203.043 339.072C202.643 339.485 202.443 340.018 202.443 340.672V346.912C202.443 347.045 202.376 347.112 202.243 347.112H200.723C200.59 347.112 200.523 347.045 200.523 346.912V337.132C200.523 336.998 200.59 336.932 200.723 336.932H202.243C202.376 336.932 202.443 336.998 202.443 337.132V337.852C202.443 337.878 202.45 337.898 202.463 337.912C202.49 337.925 202.51 337.918 202.523 337.892C203.096 337.158 203.943 336.792 205.063 336.792Z" fill="#59CF60"/>
<defs>
<filter id="filter0_d_90_216" x="0.719727" y="58.3374" width="73.4639" height="75.0035" filterUnits="userSpaceOnUse" color-interpolation-filters="sRGB">
<feFlood flood-opacity="0" result="BackgroundImageFix"/>
<feColorMatrix in="SourceAlpha" type="matrix" values="0 0 0 0 0 0 0 0 0 0 0 0 0 0 0 0 0 0 127 0" result="hardAlpha"/>
<feOffset dy="4"/>
<feGaussianBlur stdDeviation="2"/>
<feComposite in2="hardAlpha" operator="out"/>
<feColorMatrix type="matrix" values="0 0 0 0 0 0 0 0 0 0 0 0 0 0 0 0 0 0 0.25 0"/>
<feBlend mode="normal" in2="BackgroundImageFix" result="effect1_dropShadow_90_216"/>
<feBlend mode="normal" in="SourceGraphic" in2="effect1_dropShadow_90_216" result="shape"/>
</filter>
<filter id="filter1_d_90_216" x="198.067" y="65.2908" width="74.3613" height="75.0035" filterUnits="userSpaceOnUse" color-interpolation-filters="sRGB">
<feFlood flood-opacity="0" result="BackgroundImageFix"/>
<feColorMatrix in="SourceAlpha" type="matrix" values="0 0 0 0 0 0 0 0 0 0 0 0 0 0 0 0 0 0 127 0" result="hardAlpha"/>
<feOffset dy="4"/>
<feGaussianBlur stdDeviation="2"/>
<feComposite in2="hardAlpha" operator="out"/>
<feColorMatrix type="matrix" values="0 0 0 0 0 0 0 0 0 0 0 0 0 0 0 0 0 0 0.25 0"/>
<feBlend mode="normal" in2="BackgroundImageFix" result="effect1_dropShadow_90_216"/>
<feBlend mode="normal" in="SourceGraphic" in2="effect1_dropShadow_90_216" result="shape"/>
</filter>
<clipPath id="clip0_90_216">
<rect width="63.8618" height="63.8618" fill="white" transform="translate(111.619)"/>
</clipPath>
<clipPath id="clip1_90_216">
<rect width="23.9482" height="23.9482" fill="white" transform="translate(124.247 10.0277)"/>
</clipPath>
<clipPath id="clip2_90_216">
<rect width="199.568" height="134.301" fill="white" transform="translate(36.79 144.811)"/>
</clipPath>
<clipPath id="clip3_90_216">
<rect width="72.8424" height="72.8424" fill="white" transform="translate(163.516 152.071)"/>
</clipPath>
</defs>
</svg>
