<svg width="386" height="96" viewBox="0 0 386 96" fill="none" xmlns="http://www.w3.org/2000/svg">
<path d="M38.1125 4.272C43.7445 4.272 48.6938 5.424 52.9605 7.728C57.2272 10.032 60.5125 13.3173 62.8165 17.584C65.2058 21.7653 66.4005 26.5867 66.4005 32.048C66.4005 37.424 65.1632 42.16 62.6885 46.256C60.2992 50.352 56.8858 53.552 52.4485 55.856C48.0965 58.0747 43.0618 59.184 37.3445 59.184H19.1685C18.7418 59.184 18.5285 59.3973 18.5285 59.824V92.464C18.5285 92.8907 18.3578 93.2747 18.0165 93.616C17.7605 93.872 17.4192 94 16.9925 94H2.0165C1.58983 94 1.20583 93.872 0.864501 93.616C0.6085 93.2747 0.4805 92.8907 0.4805 92.464V5.808C0.4805 5.38133 0.6085 5.04 0.864501 4.784C1.20583 4.44266 1.58983 4.272 2.0165 4.272H38.1125ZM35.4245 44.72C39.3498 44.72 42.5072 43.6107 44.8965 41.392C47.2858 39.088 48.4805 36.1013 48.4805 32.432C48.4805 28.6773 47.2858 25.648 44.8965 23.344C42.5072 21.04 39.3498 19.888 35.4245 19.888H19.1685C18.7418 19.888 18.5285 20.1013 18.5285 20.528V44.08C18.5285 44.5067 18.7418 44.72 19.1685 44.72H35.4245ZM77.8795 94C77.4528 94 77.0688 93.872 76.7275 93.616C76.4715 93.2747 76.3435 92.8907 76.3435 92.464V5.936C76.3435 5.50933 76.4715 5.168 76.7275 4.91199C77.0688 4.57066 77.4528 4.39999 77.8795 4.39999H92.8555C93.2822 4.39999 93.6235 4.57066 93.8795 4.91199C94.2208 5.168 94.3915 5.50933 94.3915 5.936V92.464C94.3915 92.8907 94.2208 93.2747 93.8795 93.616C93.6235 93.872 93.2822 94 92.8555 94H77.8795ZM117.322 20.784C114.42 20.784 111.988 19.8453 110.026 17.968C108.148 16.0053 107.21 13.5733 107.21 10.672C107.21 7.68533 108.148 5.25333 110.026 3.376C111.903 1.49866 114.335 0.559998 117.322 0.559998C120.308 0.559998 122.74 1.49866 124.618 3.376C126.495 5.25333 127.434 7.68533 127.434 10.672C127.434 13.5733 126.452 16.0053 124.49 17.968C122.612 19.8453 120.223 20.784 117.322 20.784ZM109.642 94C109.215 94 108.831 93.872 108.49 93.616C108.234 93.2747 108.106 92.8907 108.106 92.464V29.616C108.106 29.1893 108.234 28.848 108.49 28.592C108.831 28.2507 109.215 28.08 109.642 28.08H124.618C125.044 28.08 125.386 28.2507 125.642 28.592C125.983 28.848 126.154 29.1893 126.154 29.616V92.464C126.154 92.8907 125.983 93.2747 125.642 93.616C125.386 93.872 125.044 94 124.618 94H109.642ZM172.987 27.312C176.059 27.312 178.491 27.9093 180.283 29.104C180.965 29.4453 181.221 30.0853 181.051 31.024L178.363 45.616C178.277 46.64 177.68 46.9387 176.571 46.512C175.291 46.0853 173.797 45.872 172.091 45.872C171.408 45.872 170.469 45.9573 169.275 46.128C166.203 46.384 163.6 47.536 161.467 49.584C159.333 51.5467 158.267 54.192 158.267 57.52V92.464C158.267 92.8907 158.096 93.2747 157.755 93.616C157.499 93.872 157.157 94 156.731 94H141.755C141.328 94 140.944 93.872 140.603 93.616C140.347 93.2747 140.219 92.8907 140.219 92.464V29.744C140.219 29.3173 140.347 28.976 140.603 28.72C140.944 28.3787 141.328 28.208 141.755 28.208H156.731C157.157 28.208 157.499 28.3787 157.755 28.72C158.096 28.976 158.267 29.3173 158.267 29.744V34.608C158.267 34.864 158.352 35.0347 158.523 35.12C158.693 35.2053 158.821 35.1627 158.907 34.992C162.405 29.872 167.099 27.312 172.987 27.312ZM331.804 27.184C338.46 27.184 343.665 29.1893 347.42 33.2C351.174 37.2107 353.052 42.8427 353.052 50.096V92.464C353.052 92.8907 352.881 93.2747 352.54 93.616C352.284 93.872 351.942 94 351.516 94H336.54C336.113 94 335.729 93.872 335.388 93.616C335.132 93.2747 335.004 92.8907 335.004 92.464V54.064C335.004 50.5653 334.108 47.792 332.316 45.744C330.524 43.696 328.134 42.672 325.148 42.672C322.161 42.672 319.729 43.696 317.852 45.744C315.974 47.792 315.036 50.5227 315.036 53.936V92.464C315.036 92.8907 314.865 93.2747 314.524 93.616C314.268 93.872 313.926 94 313.5 94H298.652C298.225 94 297.841 93.872 297.5 93.616C297.244 93.2747 297.116 92.8907 297.116 92.464V54.064C297.116 50.6507 296.177 47.92 294.3 45.872C292.422 43.7387 289.99 42.672 287.004 42.672C284.273 42.672 281.969 43.4827 280.092 45.104C278.3 46.7253 277.233 48.9867 276.892 51.888V92.464C276.892 92.8907 276.721 93.2747 276.38 93.616C276.124 93.872 275.782 94 275.356 94H260.38C259.953 94 259.569 93.872 259.228 93.616C258.972 93.2747 258.844 92.8907 258.844 92.464V29.744C258.844 29.3173 258.972 28.976 259.228 28.72C259.569 28.3787 259.953 28.208 260.38 28.208H275.356C275.782 28.208 276.124 28.3787 276.38 28.72C276.721 28.976 276.892 29.3173 276.892 29.744V34.736C276.892 34.992 276.977 35.1627 277.148 35.248C277.318 35.3333 277.489 35.248 277.66 34.992C281.158 29.7867 286.577 27.184 293.916 27.184C298.182 27.184 301.894 28.08 305.052 29.872C308.294 31.664 310.769 34.224 312.476 37.552C312.732 38.064 313.03 38.064 313.372 37.552C315.249 34.0533 317.766 31.4507 320.924 29.744C324.166 28.0373 327.793 27.184 331.804 27.184ZM375.447 20.784C372.545 20.784 370.113 19.8453 368.151 17.968C366.273 16.0053 365.335 13.5733 365.335 10.672C365.335 7.68533 366.273 5.25333 368.151 3.376C370.028 1.49866 372.46 0.559998 375.447 0.559998C378.433 0.559998 380.865 1.49866 382.743 3.376C384.62 5.25333 385.559 7.68533 385.559 10.672C385.559 13.5733 384.577 16.0053 382.615 17.968C380.737 19.8453 378.348 20.784 375.447 20.784ZM367.767 94C367.34 94 366.956 93.872 366.615 93.616C366.359 93.2747 366.231 92.8907 366.231 92.464V29.616C366.231 29.1893 366.359 28.848 366.615 28.592C366.956 28.2507 367.34 28.08 367.767 28.08H382.743C383.169 28.08 383.511 28.2507 383.767 28.592C384.108 28.848 384.279 29.1893 384.279 29.616V92.464C384.279 92.8907 384.108 93.2747 383.767 93.616C383.511 93.872 383.169 94 382.743 94H367.767Z" fill="#645BF9"/>
<path d="M216.65 95.024C209.482 95.024 203.338 93.1467 198.218 89.392C193.098 85.6373 189.599 80.5173 187.722 74.032C186.527 70.0213 185.93 65.6693 185.93 60.976C185.93 55.9413 186.527 51.4187 187.722 47.408C189.684 41.0933 193.226 36.144 198.346 32.56C203.466 28.976 209.61 27.184 216.778 27.184C223.775 27.184 229.748 28.976 234.698 32.56C239.647 36.0587 243.146 40.9653 245.194 47.28C246.559 51.5467 247.242 56.0267 247.242 60.72C247.242 65.328 246.644 69.6373 245.45 73.648C243.572 80.304 240.074 85.552 234.954 89.392C229.919 93.1467 223.818 95.024 216.65 95.024ZM216.65 79.536C219.466 79.536 221.855 78.6827 223.818 76.976C225.78 75.2693 227.188 72.9227 228.042 69.936C228.724 67.2053 229.066 64.2187 229.066 60.976C229.066 57.392 228.724 54.3627 228.042 51.888C227.103 48.9867 225.652 46.7253 223.69 45.104C221.727 43.4827 219.338 42.672 216.522 42.672C213.62 42.672 211.188 43.4827 209.226 45.104C207.348 46.7253 205.983 48.9867 205.13 51.888C204.447 53.936 204.106 56.9653 204.106 60.976C204.106 64.816 204.404 67.8027 205.002 69.936C205.855 72.9227 207.263 75.2693 209.226 76.976C211.274 78.6827 213.748 79.536 216.65 79.536Z" fill="#59CF60"/>
</svg>
