<svg width="290" height="228" viewBox="0 0 290 228" fill="none" xmlns="http://www.w3.org/2000/svg">
<path d="M156.991 153.837C159.276 155.018 161.846 155.608 164.702 155.608C167.558 155.608 170.129 155.018 172.413 153.837C174.698 152.657 176.479 150.97 177.756 148.778C179.066 146.552 179.721 143.955 179.721 140.986C179.721 132.597 176.565 129.957 174.465 129.957C172.365 134.173 170.265 136.281 167.323 137.344C168.029 138.153 168.381 139.367 168.381 140.986C168.381 142.605 168.029 143.837 167.323 144.68C166.617 145.489 165.744 145.894 164.702 145.894C163.627 145.894 162.737 145.489 162.031 144.68C161.359 143.837 161.023 142.605 161.023 140.986C161.023 139.367 161.376 138.153 162.081 137.344C162.787 136.5 163.661 136.079 164.702 136.079C170.266 134.173 169.402 131.237 172.413 128.135C170.129 126.955 167.558 126.365 164.702 126.365C161.846 126.365 159.276 126.955 156.991 128.135C154.706 129.316 152.909 131.019 151.598 133.245C150.321 135.438 149.683 138.018 149.683 140.986C149.683 143.955 150.321 146.552 151.598 148.778C152.909 150.97 154.706 152.657 156.991 153.837Z" fill="#59CF60"/>
<path d="M92.7812 155.617V118.177H81.5928V155.617H92.7812Z" fill="#645BF9"/>
<path d="M136.142 128.388C134.496 129.367 133.101 130.682 131.959 132.335V127.073H120.771V155.608H131.959V143.921C131.959 142.032 132.446 140.717 133.421 139.975C134.429 139.233 135.991 138.862 138.108 138.862H141.283V126.871C139.502 126.871 137.789 127.377 136.142 128.388Z" fill="#645BF9"/>
<path d="M234.489 130.168C232.507 127.975 229.701 126.879 226.073 126.879C224.124 126.879 222.343 127.368 220.73 128.346C219.117 129.291 217.79 130.505 216.749 131.989C215.808 130.37 214.548 129.122 212.969 128.245C211.389 127.334 209.575 126.879 207.525 126.879C205.644 126.879 203.997 127.25 202.586 127.992C201.209 128.734 200.117 129.712 199.31 130.927V127.081H188.121V155.617H199.31V140.489C199.31 139.275 199.663 138.33 200.369 137.656C201.074 136.947 202.049 136.593 203.292 136.593C204.501 136.593 205.459 136.947 206.165 137.656C206.904 138.33 207.273 139.275 207.273 140.489V155.617H218.412V140.489C218.412 139.275 218.765 138.33 219.47 137.656C220.176 136.947 221.15 136.593 222.393 136.593C223.603 136.593 224.561 136.947 225.266 137.656C226.005 138.33 226.375 139.275 226.375 140.489V155.617H237.513V139.072C237.513 135.328 236.505 132.36 234.489 130.168Z" fill="#645BF9"/>
<path d="M253.305 126.297C251.633 126.336 250.36 125.058 249.087 126.297C247.555 123.89 249.235 120.209 251.633 118.67C253.662 118.957 254.178 119.948 256.434 119.542C255.302 120.946 253.037 123.756 253.305 126.297Z" fill="#59CF60" stroke="#59CF60" stroke-width="0.09" stroke-miterlimit="8.83367"/>
<path d="M257.102 155.617V127.081H245.913V155.617H257.102Z" fill="#645BF9"/>
<path d="M142.901 58.949C142.901 68.2348 140.711 76.6888 136.332 84.3113C131.953 91.7955 125.454 97.7547 116.836 102.19C108.36 106.625 98.0473 108.842 85.898 108.842H73.1838V155.617H42.1016C42.1016 155.617 42.1004 122.27 42.1006 102.19C42.1006 99.0925 62.948 92.8023 67.2046 72.6812C67.2515 72.4472 67.2834 72.2997 67.2502 72.4616C67.2352 72.5349 67.22 72.6083 67.2046 72.6812C67.1537 72.9346 67.0853 73.2892 67.0627 73.4617C65.9945 81.6141 76.2355 88.8277 85.898 88.8277C95.9536 88.8277 119.342 84.3112 119.342 58.949C119.342 28.9449 92.5054 28.9449 85.898 28.9449C80.4758 28.9449 73.1838 34.4184 73.1838 34.4184C73.1838 23.5397 84.1004 10.5405 85.898 8.43243C104.263 8.43243 118.32 13.006 128.067 22.153C137.957 31.3001 142.901 43.5653 142.901 58.949Z" fill="#645BF9"/>
<path d="M37.3896 82.2086C39.8492 84.7434 43.1169 86.0108 47.1929 86.0108C51.1985 86.0108 54.4311 84.7434 56.8907 82.2086C59.3504 79.6738 60.5802 76.4847 60.5802 72.6416C60.5802 68.7167 59.3504 65.4867 56.8907 62.9519C54.4311 60.3353 51.1985 59.027 47.1929 59.027C43.1169 59.027 39.8492 60.3353 37.3896 62.9519C34.93 65.4867 33.7002 68.7167 33.7002 72.6416C33.7002 76.4847 34.93 79.6738 37.3896 82.2086Z" fill="#59CF60"/>
<path d="M61.7076 48.7226C51.6754 48.957 44.0389 41.2911 36.4039 48.723C27.2067 34.2802 37.2882 12.1939 51.6755 2.961C63.8517 4.68128 66.9486 10.627 80.4828 8.1904C73.6901 16.6187 60.1045 33.4753 61.7076 48.7226Z" fill="#59CF60" stroke="#59CF60" stroke-width="0.09" stroke-miterlimit="8.83367"/>
<path d="M110.976 122.393C110.976 120.064 109.096 118.177 106.776 118.177C104.457 118.177 102.576 120.064 102.576 122.393C102.576 124.722 104.457 126.609 106.776 126.609C109.096 126.609 110.976 124.722 110.976 122.393Z" fill="#59CF60"/>
<path d="M112.37 155.608V127.073H101.182V155.608H112.37Z" fill="#645BF9"/>
<path d="M24.5098 200C24.3898 200 24.3164 199.947 24.2898 199.84L20.5298 186.22L20.5098 186.16C20.5098 186.053 20.5764 186 20.7098 186H22.3298C22.4498 186 22.5231 186.06 22.5498 186.18L25.1698 196.14C25.1831 196.167 25.1964 196.18 25.2098 196.18C25.2364 196.18 25.2564 196.167 25.2698 196.14L27.7498 186.18C27.7764 186.06 27.8498 186 27.9698 186H29.5498C29.6698 186 29.7431 186.06 29.7698 186.18L32.3898 196.16C32.4031 196.187 32.4164 196.2 32.4298 196.2C32.4431 196.2 32.4564 196.187 32.4698 196.16L35.1098 186.18C35.1364 186.06 35.2098 186 35.3298 186H36.8498C36.9164 186 36.9631 186.02 36.9898 186.06C37.0298 186.1 37.0431 186.153 37.0298 186.22L33.4098 199.82C33.3831 199.94 33.3098 200 33.1898 200H31.6498C31.5298 200 31.4564 199.94 31.4298 199.82L28.8098 189.5C28.7964 189.46 28.7831 189.44 28.7698 189.44C28.7564 189.44 28.7431 189.46 28.7298 189.5L26.1898 199.82C26.1764 199.94 26.1031 200 25.9698 200H24.5098ZM43.5084 189.68C44.6017 189.68 45.4684 190 46.1084 190.64C46.7484 191.267 47.0684 192.12 47.0684 193.2V199.8C47.0684 199.933 47.0017 200 46.8684 200H45.3484C45.215 200 45.1484 199.933 45.1484 199.8V193.58C45.1484 192.913 44.955 192.373 44.5684 191.96C44.1817 191.547 43.6684 191.34 43.0284 191.34C42.4017 191.34 41.8884 191.547 41.4884 191.96C41.0884 192.373 40.8884 192.907 40.8884 193.56V199.8C40.8884 199.933 40.8217 200 40.6884 200H39.1684C39.035 200 38.9684 199.933 38.9684 199.8V186.2C38.9684 186.067 39.035 186 39.1684 186H40.6884C40.8217 186 40.8884 186.067 40.8884 186.2V190.74C40.8884 190.767 40.895 190.787 40.9084 190.8C40.935 190.813 40.955 190.807 40.9684 190.78C41.5417 190.047 42.3884 189.68 43.5084 189.68ZM57.931 193.64C57.9843 194.187 58.0043 194.8 57.991 195.48C57.991 195.613 57.9243 195.68 57.791 195.68H51.411C51.3577 195.68 51.331 195.707 51.331 195.76C51.331 196.213 51.371 196.56 51.451 196.8C51.5977 197.333 51.891 197.753 52.331 198.06C52.7843 198.353 53.351 198.5 54.031 198.5C55.0177 198.5 55.7777 198.093 56.311 197.28C56.3777 197.147 56.4643 197.127 56.571 197.22L57.711 197.98C57.8043 198.06 57.8243 198.147 57.771 198.24C57.3977 198.84 56.8643 199.313 56.171 199.66C55.491 200.007 54.7177 200.18 53.851 200.18C52.8777 200.18 52.0577 199.967 51.391 199.54C50.7243 199.113 50.2243 198.507 49.891 197.72C49.571 196.933 49.411 195.98 49.411 194.86C49.411 193.887 49.4843 193.147 49.631 192.64C49.871 191.72 50.351 190.993 51.071 190.46C51.791 189.927 52.6643 189.66 53.691 189.66C55.0377 189.66 56.0443 190 56.711 190.68C57.3777 191.347 57.7843 192.333 57.931 193.64ZM53.691 191.32C53.1177 191.32 52.6443 191.467 52.271 191.76C51.8977 192.04 51.6443 192.42 51.511 192.9C51.4177 193.193 51.3577 193.567 51.331 194.02C51.331 194.073 51.3577 194.1 51.411 194.1H55.991C56.0443 194.1 56.071 194.073 56.071 194.02C56.0443 193.58 56.0043 193.253 55.951 193.04C55.8177 192.52 55.551 192.107 55.151 191.8C54.7643 191.48 54.2777 191.32 53.691 191.32ZM64.8737 189.72C65.3003 189.72 65.687 189.807 66.0337 189.98C66.127 190.02 66.1603 190.1 66.1337 190.22L65.8137 191.72C65.8003 191.84 65.7203 191.88 65.5737 191.84C65.347 191.747 65.0803 191.7 64.7737 191.7L64.4937 191.72C63.867 191.747 63.347 191.967 62.9337 192.38C62.5337 192.78 62.3337 193.307 62.3337 193.96V199.8C62.3337 199.933 62.267 200 62.1337 200H60.6137C60.4803 200 60.4137 199.933 60.4137 199.8V190.02C60.4137 189.887 60.4803 189.82 60.6137 189.82H62.1337C62.267 189.82 62.3337 189.887 62.3337 190.02V191.08C62.3337 191.12 62.3403 191.147 62.3537 191.16C62.3803 191.16 62.4003 191.147 62.4137 191.12C63.0137 190.187 63.8337 189.72 64.8737 189.72ZM75.9193 193.64C75.9726 194.187 75.9926 194.8 75.9793 195.48C75.9793 195.613 75.9126 195.68 75.7793 195.68H69.3993C69.346 195.68 69.3193 195.707 69.3193 195.76C69.3193 196.213 69.3593 196.56 69.4393 196.8C69.586 197.333 69.8793 197.753 70.3193 198.06C70.7726 198.353 71.3393 198.5 72.0193 198.5C73.006 198.5 73.766 198.093 74.2993 197.28C74.366 197.147 74.4526 197.127 74.5593 197.22L75.6993 197.98C75.7926 198.06 75.8126 198.147 75.7593 198.24C75.386 198.84 74.8526 199.313 74.1593 199.66C73.4793 200.007 72.706 200.18 71.8393 200.18C70.866 200.18 70.046 199.967 69.3793 199.54C68.7126 199.113 68.2126 198.507 67.8793 197.72C67.5593 196.933 67.3993 195.98 67.3993 194.86C67.3993 193.887 67.4726 193.147 67.6193 192.64C67.8593 191.72 68.3393 190.993 69.0593 190.46C69.7793 189.927 70.6526 189.66 71.6793 189.66C73.026 189.66 74.0326 190 74.6993 190.68C75.366 191.347 75.7726 192.333 75.9193 193.64ZM71.6793 191.32C71.106 191.32 70.6326 191.467 70.2593 191.76C69.886 192.04 69.6326 192.42 69.4993 192.9C69.406 193.193 69.346 193.567 69.3193 194.02C69.3193 194.073 69.346 194.1 69.3993 194.1H73.9793C74.0326 194.1 74.0593 194.073 74.0593 194.02C74.0326 193.58 73.9926 193.253 73.9393 193.04C73.806 192.52 73.5393 192.107 73.1393 191.8C72.7526 191.48 72.266 191.32 71.6793 191.32ZM90.6459 193.64C90.6992 194.187 90.7192 194.8 90.7059 195.48C90.7059 195.613 90.6392 195.68 90.5059 195.68H84.1259C84.0725 195.68 84.0459 195.707 84.0459 195.76C84.0459 196.213 84.0859 196.56 84.1659 196.8C84.3125 197.333 84.6059 197.753 85.0459 198.06C85.4992 198.353 86.0659 198.5 86.7459 198.5C87.7325 198.5 88.4925 198.093 89.0259 197.28C89.0925 197.147 89.1792 197.127 89.2859 197.22L90.4259 197.98C90.5192 198.06 90.5392 198.147 90.4859 198.24C90.1125 198.84 89.5792 199.313 88.8859 199.66C88.2059 200.007 87.4325 200.18 86.5659 200.18C85.5925 200.18 84.7725 199.967 84.1059 199.54C83.4392 199.113 82.9392 198.507 82.6059 197.72C82.2859 196.933 82.1259 195.98 82.1259 194.86C82.1259 193.887 82.1992 193.147 82.3459 192.64C82.5859 191.72 83.0659 190.993 83.7859 190.46C84.5059 189.927 85.3792 189.66 86.4059 189.66C87.7525 189.66 88.7592 190 89.4259 190.68C90.0925 191.347 90.4992 192.333 90.6459 193.64ZM86.4059 191.32C85.8325 191.32 85.3592 191.467 84.9859 191.76C84.6125 192.04 84.3592 192.42 84.2259 192.9C84.1325 193.193 84.0725 193.567 84.0459 194.02C84.0459 194.073 84.0725 194.1 84.1259 194.1H88.7059C88.7592 194.1 88.7859 194.073 88.7859 194.02C88.7592 193.58 88.7192 193.253 88.6659 193.04C88.5325 192.52 88.2659 192.107 87.8659 191.8C87.4792 191.48 86.9925 191.32 86.4059 191.32ZM95.457 200C95.337 200 95.257 199.947 95.217 199.84L91.957 190.04L91.937 189.96C91.937 189.867 91.997 189.82 92.117 189.82H93.797C93.917 189.82 93.997 189.873 94.037 189.98L96.237 197.22C96.2503 197.247 96.2703 197.26 96.297 197.26C96.3236 197.26 96.3436 197.247 96.357 197.22L98.537 189.98C98.577 189.873 98.657 189.82 98.777 189.82L100.457 189.84C100.604 189.84 100.657 189.913 100.617 190.06L97.377 199.84C97.337 199.947 97.257 200 97.137 200H95.457ZM110.392 193.64C110.445 194.187 110.465 194.8 110.452 195.48C110.452 195.613 110.385 195.68 110.252 195.68H103.872C103.819 195.68 103.792 195.707 103.792 195.76C103.792 196.213 103.832 196.56 103.912 196.8C104.059 197.333 104.352 197.753 104.792 198.06C105.245 198.353 105.812 198.5 106.492 198.5C107.479 198.5 108.239 198.093 108.772 197.28C108.839 197.147 108.925 197.127 109.032 197.22L110.172 197.98C110.265 198.06 110.285 198.147 110.232 198.24C109.859 198.84 109.325 199.313 108.632 199.66C107.952 200.007 107.179 200.18 106.312 200.18C105.339 200.18 104.519 199.967 103.852 199.54C103.185 199.113 102.685 198.507 102.352 197.72C102.032 196.933 101.872 195.98 101.872 194.86C101.872 193.887 101.945 193.147 102.092 192.64C102.332 191.72 102.812 190.993 103.532 190.46C104.252 189.927 105.125 189.66 106.152 189.66C107.499 189.66 108.505 190 109.172 190.68C109.839 191.347 110.245 192.333 110.392 193.64ZM106.152 191.32C105.579 191.32 105.105 191.467 104.732 191.76C104.359 192.04 104.105 192.42 103.972 192.9C103.879 193.193 103.819 193.567 103.792 194.02C103.792 194.073 103.819 194.1 103.872 194.1H108.452C108.505 194.1 108.532 194.073 108.532 194.02C108.505 193.58 108.465 193.253 108.412 193.04C108.279 192.52 108.012 192.107 107.612 191.8C107.225 191.48 106.739 191.32 106.152 191.32ZM117.335 189.72C117.761 189.72 118.148 189.807 118.495 189.98C118.588 190.02 118.621 190.1 118.595 190.22L118.275 191.72C118.261 191.84 118.181 191.88 118.035 191.84C117.808 191.747 117.541 191.7 117.235 191.7L116.955 191.72C116.328 191.747 115.808 191.967 115.395 192.38C114.995 192.78 114.795 193.307 114.795 193.96V199.8C114.795 199.933 114.728 200 114.595 200H113.075C112.941 200 112.875 199.933 112.875 199.8V190.02C112.875 189.887 112.941 189.82 113.075 189.82H114.595C114.728 189.82 114.795 189.887 114.795 190.02V191.08C114.795 191.12 114.801 191.147 114.815 191.16C114.841 191.16 114.861 191.147 114.875 191.12C115.475 190.187 116.295 189.72 117.335 189.72ZM120.446 203.98C120.352 203.98 120.306 203.913 120.306 203.78V202.6C120.306 202.467 120.372 202.4 120.506 202.4H120.546C121.079 202.387 121.499 202.32 121.806 202.2C122.112 202.08 122.366 201.853 122.566 201.52C122.766 201.2 122.959 200.713 123.146 200.06C123.159 200.047 123.159 200.027 123.146 200C123.146 199.96 123.146 199.94 123.146 199.94L119.806 190.04L119.786 189.96C119.786 189.867 119.846 189.82 119.966 189.82H121.586C121.706 189.82 121.786 189.873 121.826 189.98L124.086 197.52C124.099 197.547 124.119 197.56 124.146 197.56C124.172 197.56 124.192 197.547 124.206 197.52L126.446 189.98C126.486 189.873 126.566 189.82 126.686 189.82H128.266C128.412 189.82 128.466 189.893 128.426 190.04L124.786 200.7C124.479 201.62 124.172 202.3 123.866 202.74C123.559 203.193 123.159 203.513 122.666 203.7C122.172 203.887 121.479 203.98 120.586 203.98H120.446ZM243.371 188.22C242.997 188.22 242.691 188.1 242.451 187.86C242.211 187.62 242.091 187.313 242.091 186.94C242.091 186.567 242.211 186.26 242.451 186.02C242.691 185.78 242.997 185.66 243.371 185.66C243.744 185.66 244.051 185.78 244.291 186.02C244.531 186.26 244.651 186.567 244.651 186.94C244.651 187.313 244.531 187.62 244.291 187.86C244.051 188.1 243.744 188.22 243.371 188.22ZM242.571 199.98C242.437 199.98 242.371 199.913 242.371 199.78V190.02C242.371 189.887 242.437 189.82 242.571 189.82H244.091C244.224 189.82 244.291 189.887 244.291 190.02V199.78C244.291 199.913 244.224 199.98 244.091 199.98H242.571ZM250.888 200.12C250.088 200.12 249.382 200 248.768 199.76C248.168 199.52 247.702 199.193 247.368 198.78C247.035 198.353 246.868 197.887 246.868 197.38V197.16C246.868 197.027 246.935 196.96 247.068 196.96H248.508C248.642 196.96 248.708 197.027 248.708 197.16V197.26C248.708 197.633 248.908 197.96 249.308 198.24C249.722 198.52 250.242 198.66 250.868 198.66C251.468 198.66 251.955 198.533 252.328 198.28C252.702 198.013 252.888 197.68 252.888 197.28C252.888 196.893 252.715 196.607 252.368 196.42C252.022 196.22 251.462 196.013 250.688 195.8C249.928 195.587 249.288 195.373 248.768 195.16C248.262 194.933 247.828 194.62 247.468 194.22C247.122 193.807 246.948 193.28 246.948 192.64C246.948 191.747 247.295 191.04 247.988 190.52C248.695 189.987 249.628 189.72 250.788 189.72C251.562 189.72 252.242 189.847 252.828 190.1C253.428 190.34 253.888 190.68 254.208 191.12C254.528 191.56 254.688 192.053 254.688 192.6V192.66C254.688 192.793 254.622 192.86 254.488 192.86H253.088C252.955 192.86 252.888 192.793 252.888 192.66V192.6C252.888 192.213 252.695 191.893 252.308 191.64C251.935 191.373 251.422 191.24 250.768 191.24C250.182 191.24 249.702 191.353 249.328 191.58C248.968 191.807 248.788 192.113 248.788 192.5C248.788 192.887 248.962 193.18 249.308 193.38C249.668 193.58 250.242 193.793 251.028 194.02C251.802 194.233 252.442 194.447 252.948 194.66C253.468 194.86 253.908 195.167 254.268 195.58C254.628 195.98 254.808 196.507 254.808 197.16C254.808 198.067 254.448 198.787 253.728 199.32C253.022 199.853 252.075 200.12 250.888 200.12ZM264.778 189.66C265.592 189.66 266.298 189.807 266.898 190.1C267.512 190.38 267.978 190.78 268.298 191.3C268.632 191.807 268.798 192.387 268.798 193.04V199.8C268.798 199.933 268.732 200 268.598 200H267.078C266.945 200 266.878 199.933 266.878 199.8V199.08C266.878 199.013 266.845 199 266.778 199.04C266.432 199.4 266.005 199.68 265.498 199.88C265.005 200.067 264.452 200.16 263.838 200.16C262.852 200.16 262.032 199.913 261.378 199.42C260.738 198.913 260.418 198.153 260.418 197.14C260.418 196.1 260.778 195.287 261.498 194.7C262.232 194.1 263.252 193.8 264.558 193.8H266.798C266.852 193.8 266.878 193.773 266.878 193.72V193.18C266.878 192.593 266.705 192.14 266.358 191.82C266.025 191.487 265.512 191.32 264.818 191.32C264.258 191.32 263.798 191.433 263.438 191.66C263.092 191.873 262.878 192.167 262.798 192.54C262.758 192.673 262.678 192.733 262.558 192.72L260.938 192.5C260.805 192.473 260.745 192.42 260.758 192.34C260.865 191.553 261.285 190.913 262.018 190.42C262.752 189.913 263.672 189.66 264.778 189.66ZM264.258 198.54C264.965 198.54 265.578 198.353 266.098 197.98C266.618 197.607 266.878 197.133 266.878 196.56V195.38C266.878 195.327 266.852 195.3 266.798 195.3H264.918C264.132 195.3 263.505 195.453 263.038 195.76C262.572 196.067 262.338 196.493 262.338 197.04C262.338 197.533 262.512 197.907 262.858 198.16C263.218 198.413 263.685 198.54 264.258 198.54Z" fill="#645BF9"/>
<path d="M143.401 186C143.535 186 143.601 186.067 143.601 186.2V187.48C143.601 187.613 143.535 187.68 143.401 187.68H139.561C139.508 187.68 139.481 187.707 139.481 187.76V199.8C139.481 199.933 139.415 200 139.281 200H137.761C137.628 200 137.561 199.933 137.561 199.8V187.76C137.561 187.707 137.535 187.68 137.481 187.68H133.821C133.688 187.68 133.621 187.613 133.621 187.48V186.2C133.621 186.067 133.688 186 133.821 186H143.401ZM149.131 189.72C149.558 189.72 149.945 189.807 150.291 189.98C150.385 190.02 150.418 190.1 150.391 190.22L150.071 191.72C150.058 191.84 149.978 191.88 149.831 191.84C149.605 191.747 149.338 191.7 149.031 191.7L148.751 191.72C148.125 191.747 147.605 191.967 147.191 192.38C146.791 192.78 146.591 193.307 146.591 193.96V199.8C146.591 199.933 146.525 200 146.391 200H144.871C144.738 200 144.671 199.933 144.671 199.8V190.02C144.671 189.887 144.738 189.82 144.871 189.82H146.391C146.525 189.82 146.591 189.887 146.591 190.02V191.08C146.591 191.12 146.598 191.147 146.611 191.16C146.638 191.16 146.658 191.147 146.671 191.12C147.271 190.187 148.091 189.72 149.131 189.72ZM155.735 189.66C156.549 189.66 157.255 189.807 157.855 190.1C158.469 190.38 158.935 190.78 159.255 191.3C159.589 191.807 159.755 192.387 159.755 193.04V199.8C159.755 199.933 159.689 200 159.555 200H158.035C157.902 200 157.835 199.933 157.835 199.8V199.08C157.835 199.013 157.802 199 157.735 199.04C157.389 199.4 156.962 199.68 156.455 199.88C155.962 200.067 155.409 200.16 154.795 200.16C153.809 200.16 152.989 199.913 152.335 199.42C151.695 198.913 151.375 198.153 151.375 197.14C151.375 196.1 151.735 195.287 152.455 194.7C153.189 194.1 154.209 193.8 155.515 193.8H157.755C157.809 193.8 157.835 193.773 157.835 193.72V193.18C157.835 192.593 157.662 192.14 157.315 191.82C156.982 191.487 156.469 191.32 155.775 191.32C155.215 191.32 154.755 191.433 154.395 191.66C154.049 191.873 153.835 192.167 153.755 192.54C153.715 192.673 153.635 192.733 153.515 192.72L151.895 192.5C151.762 192.473 151.702 192.42 151.715 192.34C151.822 191.553 152.242 190.913 152.975 190.42C153.709 189.913 154.629 189.66 155.735 189.66ZM155.215 198.54C155.922 198.54 156.535 198.353 157.055 197.98C157.575 197.607 157.835 197.133 157.835 196.56V195.38C157.835 195.327 157.809 195.3 157.755 195.3H155.875C155.089 195.3 154.462 195.453 153.995 195.76C153.529 196.067 153.295 196.493 153.295 197.04C153.295 197.533 153.469 197.907 153.815 198.16C154.175 198.413 154.642 198.54 155.215 198.54ZM166.887 189.68C167.981 189.68 168.847 190 169.487 190.64C170.127 191.267 170.447 192.12 170.447 193.2V199.8C170.447 199.933 170.381 200 170.247 200H168.727C168.594 200 168.527 199.933 168.527 199.8V193.58C168.527 192.913 168.334 192.373 167.947 191.96C167.561 191.547 167.047 191.34 166.407 191.34C165.781 191.34 165.267 191.547 164.867 191.96C164.467 192.373 164.267 192.907 164.267 193.56V199.8C164.267 199.933 164.201 200 164.067 200H162.547C162.414 200 162.347 199.933 162.347 199.8V190.02C162.347 189.887 162.414 189.82 162.547 189.82H164.067C164.201 189.82 164.267 189.887 164.267 190.02V190.74C164.267 190.767 164.274 190.787 164.287 190.8C164.314 190.813 164.334 190.807 164.347 190.78C164.921 190.047 165.767 189.68 166.887 189.68ZM176.767 200.12C175.967 200.12 175.26 200 174.647 199.76C174.047 199.52 173.58 199.193 173.247 198.78C172.914 198.353 172.747 197.887 172.747 197.38V197.16C172.747 197.027 172.814 196.96 172.947 196.96H174.387C174.52 196.96 174.587 197.027 174.587 197.16V197.26C174.587 197.633 174.787 197.96 175.187 198.24C175.6 198.52 176.12 198.66 176.747 198.66C177.347 198.66 177.834 198.533 178.207 198.28C178.58 198.013 178.767 197.68 178.767 197.28C178.767 196.893 178.594 196.607 178.247 196.42C177.9 196.22 177.34 196.013 176.567 195.8C175.807 195.587 175.167 195.373 174.647 195.16C174.14 194.933 173.707 194.62 173.347 194.22C173 193.807 172.827 193.28 172.827 192.64C172.827 191.747 173.174 191.04 173.867 190.52C174.574 189.987 175.507 189.72 176.667 189.72C177.44 189.72 178.12 189.847 178.707 190.1C179.307 190.34 179.767 190.68 180.087 191.12C180.407 191.56 180.567 192.053 180.567 192.6V192.66C180.567 192.793 180.5 192.86 180.367 192.86H178.967C178.834 192.86 178.767 192.793 178.767 192.66V192.6C178.767 192.213 178.574 191.893 178.187 191.64C177.814 191.373 177.3 191.24 176.647 191.24C176.06 191.24 175.58 191.353 175.207 191.58C174.847 191.807 174.667 192.113 174.667 192.5C174.667 192.887 174.84 193.18 175.187 193.38C175.547 193.58 176.12 193.793 176.907 194.02C177.68 194.233 178.32 194.447 178.827 194.66C179.347 194.86 179.787 195.167 180.147 195.58C180.507 195.98 180.687 196.507 180.687 197.16C180.687 198.067 180.327 198.787 179.607 199.32C178.9 199.853 177.954 200.12 176.767 200.12ZM186.653 189.66C187.467 189.66 188.173 189.807 188.773 190.1C189.387 190.38 189.853 190.78 190.173 191.3C190.507 191.807 190.673 192.387 190.673 193.04V199.8C190.673 199.933 190.607 200 190.473 200H188.953C188.82 200 188.753 199.933 188.753 199.8V199.08C188.753 199.013 188.72 199 188.653 199.04C188.307 199.4 187.88 199.68 187.373 199.88C186.88 200.067 186.327 200.16 185.713 200.16C184.727 200.16 183.907 199.913 183.253 199.42C182.613 198.913 182.293 198.153 182.293 197.14C182.293 196.1 182.653 195.287 183.373 194.7C184.107 194.1 185.127 193.8 186.433 193.8H188.673C188.727 193.8 188.753 193.773 188.753 193.72V193.18C188.753 192.593 188.58 192.14 188.233 191.82C187.9 191.487 187.387 191.32 186.693 191.32C186.133 191.32 185.673 191.433 185.313 191.66C184.967 191.873 184.753 192.167 184.673 192.54C184.633 192.673 184.553 192.733 184.433 192.72L182.813 192.5C182.68 192.473 182.62 192.42 182.633 192.34C182.74 191.553 183.16 190.913 183.893 190.42C184.627 189.913 185.547 189.66 186.653 189.66ZM186.133 198.54C186.84 198.54 187.453 198.353 187.973 197.98C188.493 197.607 188.753 197.133 188.753 196.56V195.38C188.753 195.327 188.727 195.3 188.673 195.3H186.793C186.007 195.3 185.38 195.453 184.913 195.76C184.447 196.067 184.213 196.493 184.213 197.04C184.213 197.533 184.387 197.907 184.733 198.16C185.093 198.413 185.56 198.54 186.133 198.54ZM197.345 200.16C196.332 200.16 195.465 199.907 194.745 199.4C194.025 198.88 193.532 198.18 193.265 197.3C193.065 196.687 192.965 195.88 192.965 194.88C192.965 193.96 193.065 193.153 193.265 192.46C193.532 191.607 194.025 190.927 194.745 190.42C195.479 189.913 196.345 189.66 197.345 189.66C198.345 189.66 199.219 189.913 199.965 190.42C200.712 190.927 201.199 191.567 201.425 192.34C201.505 192.553 201.559 192.773 201.585 193C201.585 193.107 201.525 193.173 201.405 193.2L199.905 193.42H199.865C199.772 193.42 199.705 193.36 199.665 193.24L199.605 192.92C199.499 192.467 199.239 192.087 198.825 191.78C198.412 191.473 197.912 191.32 197.325 191.32C196.752 191.32 196.265 191.473 195.865 191.78C195.465 192.087 195.205 192.493 195.085 193C194.965 193.48 194.905 194.113 194.905 194.9C194.905 195.673 194.965 196.3 195.085 196.78C195.219 197.313 195.479 197.733 195.865 198.04C196.265 198.347 196.752 198.5 197.325 198.5C197.912 198.5 198.412 198.347 198.825 198.04C199.252 197.733 199.519 197.333 199.625 196.84C199.639 196.827 199.639 196.813 199.625 196.8C199.625 196.773 199.632 196.753 199.645 196.74V196.66C199.685 196.553 199.759 196.513 199.865 196.54L201.365 196.78C201.472 196.807 201.525 196.86 201.525 196.94V197.02C201.525 197.14 201.492 197.287 201.425 197.46C201.199 198.273 200.712 198.927 199.965 199.42C199.219 199.913 198.345 200.16 197.345 200.16ZM208.813 191.2C208.813 191.333 208.746 191.4 208.613 191.4H206.453C206.399 191.4 206.373 191.427 206.373 191.48V196.78C206.373 197.34 206.499 197.747 206.753 198C207.006 198.24 207.399 198.36 207.933 198.36H208.513C208.646 198.36 208.713 198.427 208.713 198.56V199.8C208.713 199.933 208.646 200 208.513 200C208.086 200.027 207.779 200.04 207.593 200.04C206.579 200.04 205.813 199.86 205.293 199.5C204.786 199.127 204.533 198.447 204.533 197.46V191.48C204.533 191.427 204.506 191.4 204.453 191.4H203.233C203.099 191.4 203.033 191.333 203.033 191.2V190.02C203.033 189.887 203.099 189.82 203.233 189.82H204.453C204.506 189.82 204.533 189.793 204.533 189.74V187.38C204.533 187.247 204.599 187.18 204.733 187.18H206.173C206.306 187.18 206.373 187.247 206.373 187.38V189.74C206.373 189.793 206.399 189.82 206.453 189.82H208.613C208.746 189.82 208.813 189.887 208.813 190.02V191.2ZM212.335 188.22C211.962 188.22 211.655 188.1 211.415 187.86C211.175 187.62 211.055 187.313 211.055 186.94C211.055 186.567 211.175 186.26 211.415 186.02C211.655 185.78 211.962 185.66 212.335 185.66C212.709 185.66 213.015 185.78 213.255 186.02C213.495 186.26 213.615 186.567 213.615 186.94C213.615 187.313 213.495 187.62 213.255 187.86C213.015 188.1 212.709 188.22 212.335 188.22ZM211.535 199.98C211.402 199.98 211.335 199.913 211.335 199.78V190.02C211.335 189.887 211.402 189.82 211.535 189.82H213.055C213.189 189.82 213.255 189.887 213.255 190.02V199.78C213.255 199.913 213.189 199.98 213.055 199.98H211.535ZM220.433 200.16C219.446 200.16 218.586 199.913 217.853 199.42C217.12 198.913 216.606 198.213 216.313 197.32C216.073 196.6 215.953 195.787 215.953 194.88C215.953 193.933 216.066 193.133 216.293 192.48C216.586 191.6 217.1 190.913 217.833 190.42C218.566 189.913 219.44 189.66 220.453 189.66C221.413 189.66 222.246 189.913 222.953 190.42C223.673 190.913 224.186 191.593 224.493 192.46C224.733 193.14 224.853 193.94 224.853 194.86C224.853 195.793 224.733 196.613 224.493 197.32C224.2 198.213 223.693 198.913 222.973 199.42C222.253 199.913 221.406 200.16 220.433 200.16ZM220.433 198.5C220.966 198.5 221.433 198.353 221.833 198.06C222.233 197.753 222.52 197.327 222.693 196.78C222.84 196.273 222.913 195.647 222.913 194.9C222.913 194.153 222.846 193.533 222.713 193.04C222.54 192.493 222.253 192.073 221.853 191.78C221.453 191.473 220.966 191.32 220.393 191.32C219.846 191.32 219.373 191.473 218.973 191.78C218.573 192.073 218.286 192.493 218.113 193.04C217.966 193.507 217.893 194.127 217.893 194.9C217.893 195.673 217.966 196.3 218.113 196.78C218.273 197.327 218.553 197.753 218.953 198.06C219.366 198.353 219.86 198.5 220.433 198.5ZM231.907 189.68C233 189.68 233.867 190 234.507 190.64C235.147 191.267 235.467 192.12 235.467 193.2V199.8C235.467 199.933 235.4 200 235.267 200H233.747C233.613 200 233.547 199.933 233.547 199.8V193.58C233.547 192.913 233.353 192.373 232.967 191.96C232.58 191.547 232.067 191.34 231.427 191.34C230.8 191.34 230.287 191.547 229.887 191.96C229.487 192.373 229.287 192.907 229.287 193.56V199.8C229.287 199.933 229.22 200 229.087 200H227.567C227.433 200 227.367 199.933 227.367 199.8V190.02C227.367 189.887 227.433 189.82 227.567 189.82H229.087C229.22 189.82 229.287 189.887 229.287 190.02V190.74C229.287 190.767 229.293 190.787 229.307 190.8C229.333 190.813 229.353 190.807 229.367 190.78C229.94 190.047 230.787 189.68 231.907 189.68ZM93.3568 224.18C92.3968 224.18 91.5435 223.993 90.7968 223.62C90.0635 223.233 89.4901 222.693 89.0768 222C88.6768 221.293 88.4768 220.487 88.4768 219.58V214.4C88.4768 213.493 88.6768 212.7 89.0768 212.02C89.4901 211.327 90.0635 210.793 90.7968 210.42C91.5435 210.033 92.3968 209.84 93.3568 209.84C94.3168 209.84 95.1635 210.027 95.8968 210.4C96.6301 210.76 97.1968 211.273 97.5968 211.94C98.0101 212.607 98.2168 213.38 98.2168 214.26V214.28C98.2168 214.347 98.1968 214.4 98.1568 214.44C98.1168 214.48 98.0701 214.5 98.0168 214.5L96.4968 214.58C96.3635 214.58 96.2968 214.52 96.2968 214.4V214.34C96.2968 213.487 96.0301 212.8 95.4968 212.28C94.9635 211.76 94.2501 211.5 93.3568 211.5C92.4635 211.5 91.7435 211.76 91.1968 212.28C90.6635 212.8 90.3968 213.487 90.3968 214.34V219.66C90.3968 220.513 90.6635 221.2 91.1968 221.72C91.7435 222.24 92.4635 222.5 93.3568 222.5C94.2501 222.5 94.9635 222.24 95.4968 221.72C96.0301 221.2 96.2968 220.513 96.2968 219.66V219.62C96.2968 219.5 96.3635 219.44 96.4968 219.44L98.0168 219.52C98.1501 219.52 98.2168 219.587 98.2168 219.72C98.2168 220.6 98.0101 221.38 97.5968 222.06C97.1968 222.727 96.6301 223.247 95.8968 223.62C95.1635 223.993 94.3168 224.18 93.3568 224.18ZM104.906 224.16C103.919 224.16 103.059 223.913 102.326 223.42C101.592 222.913 101.079 222.213 100.786 221.32C100.546 220.6 100.426 219.787 100.426 218.88C100.426 217.933 100.539 217.133 100.766 216.48C101.059 215.6 101.572 214.913 102.306 214.42C103.039 213.913 103.912 213.66 104.926 213.66C105.886 213.66 106.719 213.913 107.426 214.42C108.146 214.913 108.659 215.593 108.966 216.46C109.206 217.14 109.326 217.94 109.326 218.86C109.326 219.793 109.206 220.613 108.966 221.32C108.672 222.213 108.166 222.913 107.446 223.42C106.726 223.913 105.879 224.16 104.906 224.16ZM104.906 222.5C105.439 222.5 105.906 222.353 106.306 222.06C106.706 221.753 106.992 221.327 107.166 220.78C107.312 220.273 107.386 219.647 107.386 218.9C107.386 218.153 107.319 217.533 107.186 217.04C107.012 216.493 106.726 216.073 106.326 215.78C105.926 215.473 105.439 215.32 104.866 215.32C104.319 215.32 103.846 215.473 103.446 215.78C103.046 216.073 102.759 216.493 102.586 217.04C102.439 217.507 102.366 218.127 102.366 218.9C102.366 219.673 102.439 220.3 102.586 220.78C102.746 221.327 103.026 221.753 103.426 222.06C103.839 222.353 104.332 222.5 104.906 222.5ZM116.379 213.68C117.473 213.68 118.339 214 118.979 214.64C119.619 215.267 119.939 216.12 119.939 217.2V223.8C119.939 223.933 119.873 224 119.739 224H118.219C118.086 224 118.019 223.933 118.019 223.8V217.58C118.019 216.913 117.826 216.373 117.439 215.96C117.053 215.547 116.539 215.34 115.899 215.34C115.273 215.34 114.759 215.547 114.359 215.96C113.959 216.373 113.759 216.907 113.759 217.56V223.8C113.759 223.933 113.693 224 113.559 224H112.039C111.906 224 111.839 223.933 111.839 223.8V214.02C111.839 213.887 111.906 213.82 112.039 213.82H113.559C113.693 213.82 113.759 213.887 113.759 214.02V214.74C113.759 214.767 113.766 214.787 113.779 214.8C113.806 214.813 113.826 214.807 113.839 214.78C114.413 214.047 115.259 213.68 116.379 213.68ZM125.086 224C124.966 224 124.886 223.947 124.846 223.84L121.586 214.04L121.566 213.96C121.566 213.867 121.626 213.82 121.746 213.82H123.426C123.546 213.82 123.626 213.873 123.666 213.98L125.866 221.22C125.879 221.247 125.899 221.26 125.926 221.26C125.953 221.26 125.973 221.247 125.986 221.22L128.166 213.98C128.206 213.873 128.286 213.82 128.406 213.82L130.086 213.84C130.233 213.84 130.286 213.913 130.246 214.06L127.006 223.84C126.966 223.947 126.886 224 126.766 224H125.086ZM140.021 217.64C140.074 218.187 140.094 218.8 140.081 219.48C140.081 219.613 140.014 219.68 139.881 219.68H133.501C133.448 219.68 133.421 219.707 133.421 219.76C133.421 220.213 133.461 220.56 133.541 220.8C133.688 221.333 133.981 221.753 134.421 222.06C134.874 222.353 135.441 222.5 136.121 222.5C137.108 222.5 137.868 222.093 138.401 221.28C138.468 221.147 138.554 221.127 138.661 221.22L139.801 221.98C139.894 222.06 139.914 222.147 139.861 222.24C139.488 222.84 138.954 223.313 138.261 223.66C137.581 224.007 136.808 224.18 135.941 224.18C134.968 224.18 134.148 223.967 133.481 223.54C132.814 223.113 132.314 222.507 131.981 221.72C131.661 220.933 131.501 219.98 131.501 218.86C131.501 217.887 131.574 217.147 131.721 216.64C131.961 215.72 132.441 214.993 133.161 214.46C133.881 213.927 134.754 213.66 135.781 213.66C137.128 213.66 138.134 214 138.801 214.68C139.468 215.347 139.874 216.333 140.021 217.64ZM135.781 215.32C135.208 215.32 134.734 215.467 134.361 215.76C133.988 216.04 133.734 216.42 133.601 216.9C133.508 217.193 133.448 217.567 133.421 218.02C133.421 218.073 133.448 218.1 133.501 218.1H138.081C138.134 218.1 138.161 218.073 138.161 218.02C138.134 217.58 138.094 217.253 138.041 217.04C137.908 216.52 137.641 216.107 137.241 215.8C136.854 215.48 136.368 215.32 135.781 215.32ZM146.964 213.72C147.39 213.72 147.777 213.807 148.124 213.98C148.217 214.02 148.25 214.1 148.224 214.22L147.904 215.72C147.89 215.84 147.81 215.88 147.664 215.84C147.437 215.747 147.17 215.7 146.864 215.7L146.584 215.72C145.957 215.747 145.437 215.967 145.024 216.38C144.624 216.78 144.424 217.307 144.424 217.96V223.8C144.424 223.933 144.357 224 144.224 224H142.704C142.57 224 142.504 223.933 142.504 223.8V214.02C142.504 213.887 142.57 213.82 142.704 213.82H144.224C144.357 213.82 144.424 213.887 144.424 214.02V215.08C144.424 215.12 144.43 215.147 144.444 215.16C144.47 215.16 144.49 215.147 144.504 215.12C145.104 214.187 145.924 213.72 146.964 213.72ZM153.408 224.12C152.608 224.12 151.901 224 151.288 223.76C150.688 223.52 150.221 223.193 149.888 222.78C149.554 222.353 149.388 221.887 149.388 221.38V221.16C149.388 221.027 149.454 220.96 149.588 220.96H151.028C151.161 220.96 151.228 221.027 151.228 221.16V221.26C151.228 221.633 151.428 221.96 151.828 222.24C152.241 222.52 152.761 222.66 153.388 222.66C153.988 222.66 154.474 222.533 154.848 222.28C155.221 222.013 155.408 221.68 155.408 221.28C155.408 220.893 155.234 220.607 154.888 220.42C154.541 220.22 153.981 220.013 153.208 219.8C152.448 219.587 151.808 219.373 151.288 219.16C150.781 218.933 150.348 218.62 149.988 218.22C149.641 217.807 149.468 217.28 149.468 216.64C149.468 215.747 149.814 215.04 150.508 214.52C151.214 213.987 152.148 213.72 153.308 213.72C154.081 213.72 154.761 213.847 155.348 214.1C155.948 214.34 156.408 214.68 156.728 215.12C157.048 215.56 157.208 216.053 157.208 216.6V216.66C157.208 216.793 157.141 216.86 157.008 216.86H155.608C155.474 216.86 155.408 216.793 155.408 216.66V216.6C155.408 216.213 155.214 215.893 154.828 215.64C154.454 215.373 153.941 215.24 153.288 215.24C152.701 215.24 152.221 215.353 151.848 215.58C151.488 215.807 151.308 216.113 151.308 216.5C151.308 216.887 151.481 217.18 151.828 217.38C152.188 217.58 152.761 217.793 153.548 218.02C154.321 218.233 154.961 218.447 155.468 218.66C155.988 218.86 156.428 219.167 156.788 219.58C157.148 219.98 157.328 220.507 157.328 221.16C157.328 222.067 156.968 222.787 156.248 223.32C155.541 223.853 154.594 224.12 153.408 224.12ZM163.294 213.66C164.107 213.66 164.814 213.807 165.414 214.1C166.027 214.38 166.494 214.78 166.814 215.3C167.147 215.807 167.314 216.387 167.314 217.04V223.8C167.314 223.933 167.247 224 167.114 224H165.594C165.46 224 165.394 223.933 165.394 223.8V223.08C165.394 223.013 165.36 223 165.294 223.04C164.947 223.4 164.52 223.68 164.014 223.88C163.52 224.067 162.967 224.16 162.354 224.16C161.367 224.16 160.547 223.913 159.894 223.42C159.254 222.913 158.934 222.153 158.934 221.14C158.934 220.1 159.294 219.287 160.014 218.7C160.747 218.1 161.767 217.8 163.074 217.8H165.314C165.367 217.8 165.394 217.773 165.394 217.72V217.18C165.394 216.593 165.22 216.14 164.874 215.82C164.54 215.487 164.027 215.32 163.334 215.32C162.774 215.32 162.314 215.433 161.954 215.66C161.607 215.873 161.394 216.167 161.314 216.54C161.274 216.673 161.194 216.733 161.074 216.72L159.454 216.5C159.32 216.473 159.26 216.42 159.274 216.34C159.38 215.553 159.8 214.913 160.534 214.42C161.267 213.913 162.187 213.66 163.294 213.66ZM162.774 222.54C163.48 222.54 164.094 222.353 164.614 221.98C165.134 221.607 165.394 221.133 165.394 220.56V219.38C165.394 219.327 165.367 219.3 165.314 219.3H163.434C162.647 219.3 162.02 219.453 161.554 219.76C161.087 220.067 160.854 220.493 160.854 221.04C160.854 221.533 161.027 221.907 161.374 222.16C161.734 222.413 162.2 222.54 162.774 222.54ZM174.789 215.2C174.789 215.333 174.722 215.4 174.589 215.4H172.429C172.376 215.4 172.349 215.427 172.349 215.48V220.78C172.349 221.34 172.476 221.747 172.729 222C172.982 222.24 173.376 222.36 173.909 222.36H174.489C174.622 222.36 174.689 222.427 174.689 222.56V223.8C174.689 223.933 174.622 224 174.489 224C174.062 224.027 173.756 224.04 173.569 224.04C172.556 224.04 171.789 223.86 171.269 223.5C170.762 223.127 170.509 222.447 170.509 221.46V215.48C170.509 215.427 170.482 215.4 170.429 215.4H169.209C169.076 215.4 169.009 215.333 169.009 215.2V214.02C169.009 213.887 169.076 213.82 169.209 213.82H170.429C170.482 213.82 170.509 213.793 170.509 213.74V211.38C170.509 211.247 170.576 211.18 170.709 211.18H172.149C172.282 211.18 172.349 211.247 172.349 211.38V213.74C172.349 213.793 172.376 213.82 172.429 213.82H174.589C174.722 213.82 174.789 213.887 174.789 214.02V215.2ZM178.312 212.22C177.939 212.22 177.632 212.1 177.392 211.86C177.152 211.62 177.032 211.313 177.032 210.94C177.032 210.567 177.152 210.26 177.392 210.02C177.632 209.78 177.939 209.66 178.312 209.66C178.685 209.66 178.992 209.78 179.232 210.02C179.472 210.26 179.592 210.567 179.592 210.94C179.592 211.313 179.472 211.62 179.232 211.86C178.992 212.1 178.685 212.22 178.312 212.22ZM177.512 223.98C177.379 223.98 177.312 223.913 177.312 223.78V214.02C177.312 213.887 177.379 213.82 177.512 213.82H179.032C179.165 213.82 179.232 213.887 179.232 214.02V223.78C179.232 223.913 179.165 223.98 179.032 223.98H177.512ZM186.41 224.16C185.423 224.16 184.563 223.913 183.83 223.42C183.096 222.913 182.583 222.213 182.29 221.32C182.05 220.6 181.93 219.787 181.93 218.88C181.93 217.933 182.043 217.133 182.27 216.48C182.563 215.6 183.076 214.913 183.81 214.42C184.543 213.913 185.416 213.66 186.43 213.66C187.39 213.66 188.223 213.913 188.93 214.42C189.65 214.913 190.163 215.593 190.47 216.46C190.71 217.14 190.83 217.94 190.83 218.86C190.83 219.793 190.71 220.613 190.47 221.32C190.176 222.213 189.67 222.913 188.95 223.42C188.23 223.913 187.383 224.16 186.41 224.16ZM186.41 222.5C186.943 222.5 187.41 222.353 187.81 222.06C188.21 221.753 188.496 221.327 188.67 220.78C188.816 220.273 188.89 219.647 188.89 218.9C188.89 218.153 188.823 217.533 188.69 217.04C188.516 216.493 188.23 216.073 187.83 215.78C187.43 215.473 186.943 215.32 186.37 215.32C185.823 215.32 185.35 215.473 184.95 215.78C184.55 216.073 184.263 216.493 184.09 217.04C183.943 217.507 183.87 218.127 183.87 218.9C183.87 219.673 183.943 220.3 184.09 220.78C184.25 221.327 184.53 221.753 184.93 222.06C185.343 222.353 185.836 222.5 186.41 222.5ZM197.883 213.68C198.977 213.68 199.843 214 200.483 214.64C201.123 215.267 201.443 216.12 201.443 217.2V223.8C201.443 223.933 201.377 224 201.243 224H199.723C199.59 224 199.523 223.933 199.523 223.8V217.58C199.523 216.913 199.33 216.373 198.943 215.96C198.557 215.547 198.043 215.34 197.403 215.34C196.777 215.34 196.263 215.547 195.863 215.96C195.463 216.373 195.263 216.907 195.263 217.56V223.8C195.263 223.933 195.197 224 195.063 224H193.543C193.41 224 193.343 223.933 193.343 223.8V214.02C193.343 213.887 193.41 213.82 193.543 213.82H195.063C195.197 213.82 195.263 213.887 195.263 214.02V214.74C195.263 214.767 195.27 214.787 195.283 214.8C195.31 214.813 195.33 214.807 195.343 214.78C195.917 214.047 196.763 213.68 197.883 213.68Z" fill="#59CF60"/>
</svg>
