<svg width="121" height="31" viewBox="0 0 121 31" fill="none" xmlns="http://www.w3.org/2000/svg">
<path d="M12.2539 1.96C14.0139 1.96 15.5606 2.32 16.8939 3.04C18.2272 3.76 19.2539 4.78667 19.9739 6.12C20.7206 7.42667 21.0939 8.93333 21.0939 10.64C21.0939 12.32 20.7072 13.8 19.9339 15.08C19.1872 16.36 18.1206 17.36 16.7339 18.08C15.3739 18.7733 13.8006 19.12 12.0139 19.12H6.33391C6.20057 19.12 6.13391 19.1867 6.13391 19.32V29.52C6.13391 29.6533 6.08057 29.7733 5.97391 29.88C5.89391 29.96 5.78724 30 5.65391 30H0.973906C0.840573 30 0.720573 29.96 0.613906 29.88C0.533906 29.7733 0.493906 29.6533 0.493906 29.52V2.44C0.493906 2.30667 0.533906 2.2 0.613906 2.12C0.720573 2.01333 0.840573 1.96 0.973906 1.96H12.2539ZM11.4139 14.6C12.6406 14.6 13.6272 14.2533 14.3739 13.56C15.1206 12.84 15.4939 11.9067 15.4939 10.76C15.4939 9.58667 15.1206 8.64 14.3739 7.92C13.6272 7.2 12.6406 6.84 11.4139 6.84H6.33391C6.20057 6.84 6.13391 6.90667 6.13391 7.04V14.4C6.13391 14.5333 6.20057 14.6 6.33391 14.6H11.4139ZM24.6811 30C24.5478 30 24.4278 29.96 24.3211 29.88C24.2411 29.7733 24.2011 29.6533 24.2011 29.52V2.48C24.2011 2.34667 24.2411 2.24 24.3211 2.16C24.4278 2.05333 24.5478 2 24.6811 2H29.3611C29.4944 2 29.6011 2.05333 29.6811 2.16C29.7878 2.24 29.8411 2.34667 29.8411 2.48V29.52C29.8411 29.6533 29.7878 29.7733 29.6811 29.88C29.6011 29.96 29.4944 30 29.3611 30H24.6811ZM37.0067 7.12C36.1001 7.12 35.3401 6.82667 34.7267 6.24C34.1401 5.62666 33.8467 4.86667 33.8467 3.96C33.8467 3.02667 34.1401 2.26667 34.7267 1.68C35.3134 1.09333 36.0734 0.799999 37.0067 0.799999C37.9401 0.799999 38.7001 1.09333 39.2867 1.68C39.8734 2.26667 40.1667 3.02667 40.1667 3.96C40.1667 4.86667 39.8601 5.62666 39.2467 6.24C38.6601 6.82667 37.9134 7.12 37.0067 7.12ZM34.6067 30C34.4734 30 34.3534 29.96 34.2467 29.88C34.1667 29.7733 34.1267 29.6533 34.1267 29.52V9.88C34.1267 9.74667 34.1667 9.64 34.2467 9.56C34.3534 9.45333 34.4734 9.4 34.6067 9.4H39.2867C39.4201 9.4 39.5267 9.45333 39.6067 9.56C39.7134 9.64 39.7667 9.74667 39.7667 9.88V29.52C39.7667 29.6533 39.7134 29.7733 39.6067 29.88C39.5267 29.96 39.4201 30 39.2867 30H34.6067ZM54.402 9.16C55.362 9.16 56.122 9.34667 56.682 9.72C56.8954 9.82667 56.9754 10.0267 56.922 10.32L56.082 14.88C56.0554 15.2 55.8687 15.2933 55.522 15.16C55.122 15.0267 54.6554 14.96 54.122 14.96C53.9087 14.96 53.6154 14.9867 53.242 15.04C52.282 15.12 51.4687 15.48 50.802 16.12C50.1354 16.7333 49.802 17.56 49.802 18.6V29.52C49.802 29.6533 49.7487 29.7733 49.642 29.88C49.562 29.96 49.4554 30 49.322 30H44.642C44.5087 30 44.3887 29.96 44.282 29.88C44.202 29.7733 44.162 29.6533 44.162 29.52V9.92C44.162 9.78667 44.202 9.68 44.282 9.6C44.3887 9.49333 44.5087 9.44 44.642 9.44H49.322C49.4554 9.44 49.562 9.49333 49.642 9.6C49.7487 9.68 49.802 9.78667 49.802 9.92V11.44C49.802 11.52 49.8287 11.5733 49.882 11.6C49.9354 11.6267 49.9754 11.6133 50.002 11.56C51.0954 9.96 52.562 9.16 54.402 9.16ZM104.032 9.12C106.112 9.12 107.739 9.74667 108.912 11C110.086 12.2533 110.672 14.0133 110.672 16.28V29.52C110.672 29.6533 110.619 29.7733 110.512 29.88C110.432 29.96 110.326 30 110.192 30H105.512C105.379 30 105.259 29.96 105.152 29.88C105.072 29.7733 105.032 29.6533 105.032 29.52V17.52C105.032 16.4267 104.752 15.56 104.192 14.92C103.632 14.28 102.886 13.96 101.952 13.96C101.019 13.96 100.259 14.28 99.6723 14.92C99.0857 15.56 98.7923 16.4133 98.7923 17.48V29.52C98.7923 29.6533 98.739 29.7733 98.6323 29.88C98.5523 29.96 98.4457 30 98.3123 30H93.6723C93.539 30 93.419 29.96 93.3123 29.88C93.2323 29.7733 93.1923 29.6533 93.1923 29.52V17.52C93.1923 16.4533 92.899 15.6 92.3123 14.96C91.7257 14.2933 90.9657 13.96 90.0323 13.96C89.179 13.96 88.459 14.2133 87.8723 14.72C87.3123 15.2267 86.979 15.9333 86.8723 16.84V29.52C86.8723 29.6533 86.819 29.7733 86.7123 29.88C86.6323 29.96 86.5257 30 86.3923 30H81.7123C81.579 30 81.459 29.96 81.3523 29.88C81.2723 29.7733 81.2323 29.6533 81.2323 29.52V9.92C81.2323 9.78667 81.2723 9.68 81.3523 9.6C81.459 9.49333 81.579 9.44 81.7123 9.44H86.3923C86.5257 9.44 86.6323 9.49333 86.7123 9.6C86.819 9.68 86.8723 9.78667 86.8723 9.92V11.48C86.8723 11.56 86.899 11.6133 86.9523 11.64C87.0057 11.6667 87.059 11.64 87.1123 11.56C88.2057 9.93333 89.899 9.12 92.1923 9.12C93.5257 9.12 94.6857 9.4 95.6723 9.96C96.6857 10.52 97.459 11.32 97.9923 12.36C98.0723 12.52 98.1657 12.52 98.2723 12.36C98.859 11.2667 99.6457 10.4533 100.632 9.92C101.646 9.38667 102.779 9.12 104.032 9.12ZM117.671 7.12C116.764 7.12 116.004 6.82667 115.391 6.24C114.804 5.62666 114.511 4.86667 114.511 3.96C114.511 3.02667 114.804 2.26667 115.391 1.68C115.977 1.09333 116.737 0.799999 117.671 0.799999C118.604 0.799999 119.364 1.09333 119.951 1.68C120.537 2.26667 120.831 3.02667 120.831 3.96C120.831 4.86667 120.524 5.62666 119.911 6.24C119.324 6.82667 118.577 7.12 117.671 7.12ZM115.271 30C115.137 30 115.017 29.96 114.911 29.88C114.831 29.7733 114.791 29.6533 114.791 29.52V9.88C114.791 9.74667 114.831 9.64 114.911 9.56C115.017 9.45333 115.137 9.4 115.271 9.4H119.951C120.084 9.4 120.191 9.45333 120.271 9.56C120.377 9.64 120.431 9.74667 120.431 9.88V29.52C120.431 29.6533 120.377 29.7733 120.271 29.88C120.191 29.96 120.084 30 119.951 30H115.271Z" fill="#645BF9"/>
<path d="M68.0467 30.32C65.8067 30.32 63.8867 29.7333 62.2867 28.56C60.6867 27.3867 59.5934 25.7867 59.0067 23.76C58.6334 22.5067 58.4467 21.1467 58.4467 19.68C58.4467 18.1067 58.6334 16.6933 59.0067 15.44C59.6201 13.4667 60.7267 11.92 62.3267 10.8C63.9267 9.68 65.8467 9.12 68.0867 9.12C70.2734 9.12 72.1401 9.68 73.6867 10.8C75.2334 11.8933 76.3267 13.4267 76.9667 15.4C77.3934 16.7333 77.6067 18.1333 77.6067 19.6C77.6067 21.04 77.4201 22.3867 77.0467 23.64C76.4601 25.72 75.3667 27.36 73.7667 28.56C72.1934 29.7333 70.2867 30.32 68.0467 30.32ZM68.0467 25.48C68.9267 25.48 69.6734 25.2133 70.2867 24.68C70.9001 24.1467 71.3401 23.4133 71.6067 22.48C71.8201 21.6267 71.9267 20.6933 71.9267 19.68C71.9267 18.56 71.8201 17.6133 71.6067 16.84C71.3134 15.9333 70.8601 15.2267 70.2467 14.72C69.6334 14.2133 68.8867 13.96 68.0067 13.96C67.1001 13.96 66.3401 14.2133 65.7267 14.72C65.1401 15.2267 64.7134 15.9333 64.4467 16.84C64.2334 17.48 64.1267 18.4267 64.1267 19.68C64.1267 20.88 64.2201 21.8133 64.4067 22.48C64.6734 23.4133 65.1134 24.1467 65.7267 24.68C66.3667 25.2133 67.1401 25.48 68.0467 25.48Z" fill="#59CF60"/>
</svg>
