<svg width="32" height="31" viewBox="0 0 32 31" fill="none" xmlns="http://www.w3.org/2000/svg">
<g clip-path="url(#clip0_90_275)">
<path d="M8.33534 28.3923C10.6202 29.5728 13.1906 30.1631 16.0466 30.1631C18.9026 30.1631 21.473 29.5728 23.7578 28.3923C26.0426 27.2117 27.8234 25.5253 29.1002 23.3328C30.4106 21.1067 31.0658 18.5095 31.0658 15.5412C31.0658 7.15142 27.9099 4.51165 25.8099 4.51165C23.7099 8.72786 21.6099 10.8359 18.6674 11.8984C19.373 12.7079 19.7258 13.9222 19.7258 15.5412C19.7258 17.1603 19.373 18.3914 18.6674 19.2347C17.9618 20.0442 17.0882 20.4489 16.0466 20.4489C14.9714 20.4489 14.081 20.0442 13.3754 19.2347C12.7034 18.3914 12.3674 17.1603 12.3674 15.5412C12.3674 13.9222 12.7202 12.7079 13.4258 11.8984C14.1314 11.0552 15.005 10.6336 16.0466 10.6336C21.6099 8.72787 20.7464 5.79212 23.7578 2.69025C21.473 1.5097 18.9026 0.919434 16.0466 0.919434C13.1906 0.919434 10.6202 1.5097 8.33534 2.69025C6.05054 3.87079 4.25294 5.57414 2.94254 7.8003C1.66574 9.99273 1.02734 12.573 1.02734 15.5412C1.02734 18.5095 1.66574 21.1067 2.94254 23.3328C4.25294 25.5253 6.05054 27.2117 8.33534 28.3923Z" fill="#59CF60"/>
</g>
<defs>
<clipPath id="clip0_90_275">
<rect width="31" height="30" fill="white" transform="translate(0.360352 0.544189)"/>
</clipPath>
</defs>
</svg>
