<svg width="24" height="24" viewBox="0 0 24 24" fill="none" xmlns="http://www.w3.org/2000/svg">
<g clip-path="url(#clip0_90_134)">
<path d="M6.17441 22.2786C7.94331 23.223 9.9333 23.6952 12.1444 23.6952C14.3555 23.6952 16.3455 23.223 18.1144 22.2786C19.8832 21.3341 21.2619 19.985 22.2504 18.231C23.2649 16.4501 23.7722 14.3724 23.7722 11.9977C23.7722 5.28588 21.3289 3.17406 19.7031 3.17406C18.0773 6.54703 16.4515 8.23349 14.1734 9.08349C14.7197 9.73109 14.9928 10.7025 14.9928 11.9977C14.9928 13.293 14.7197 14.2779 14.1734 14.9525C13.6271 15.6001 12.9508 15.9239 12.1444 15.9239C11.312 15.9239 10.6226 15.6001 10.0764 14.9525C9.55611 14.2779 9.29598 13.293 9.29598 11.9977C9.29598 10.7025 9.56911 9.73109 10.1154 9.08349C10.6617 8.40893 11.338 8.07165 12.1444 8.07165C16.4515 6.54704 15.7829 4.19844 18.1144 1.71694C16.3455 0.77251 14.3555 0.300293 12.1444 0.300293C9.9333 0.300293 7.94331 0.77251 6.17441 1.71694C4.40553 2.66138 3.01384 4.02406 1.99934 5.80498C1.01085 7.55893 0.516602 9.62317 0.516602 11.9977C0.516602 14.3724 1.01085 16.4501 1.99934 18.231C3.01384 19.985 4.40553 21.3341 6.17441 22.2786Z" fill="#59CF60"/>
</g>
<defs>
<clipPath id="clip0_90_134">
<rect width="24" height="24" fill="white"/>
</clipPath>
</defs>
</svg>
