<svg width="24" height="24" viewBox="0 0 24 24" fill="none" xmlns="http://www.w3.org/2000/svg">
<path d="M18.2862 3.17417C17.5539 2.44194 16.3667 2.44194 15.6345 3.17417C14.9023 3.90641 14.9023 5.09359 15.6345 5.82583L16.9337 7.125L5.6247 7.125C4.58917 7.125 3.7497 7.96446 3.7497 9C3.7497 10.0355 4.58917 10.875 5.6247 10.875L21.4603 10.875C22.2187 10.875 22.9024 10.4182 23.1926 9.71753C23.4828 9.01689 23.3224 8.21042 22.7862 7.67417L18.2862 3.17417Z" fill="#F1FCF2"/>
<path d="M2.53912 13.125C1.78075 13.125 1.09706 13.5818 0.806843 14.2825C0.516629 14.9831 0.677047 15.7896 1.21329 16.3258L5.71329 20.8258C6.44552 21.5581 7.63271 21.5581 8.36494 20.8258C9.09717 20.0936 9.09717 18.9064 8.36494 18.1742L7.06577 16.875L18.3748 16.875C19.4103 16.875 20.2498 16.0355 20.2498 15C20.2498 13.9645 19.4103 13.125 18.3748 13.125L2.53912 13.125Z" fill="#F1FCF2"/>
</svg>
