<svg width="8" height="8" viewBox="0 0 8 8" fill="none" xmlns="http://www.w3.org/2000/svg">
<g clip-path="url(#clip0_90_139)">
<path d="M2.05781 7.4262C2.64744 7.741 3.31077 7.89842 4.04781 7.89842C4.78484 7.89842 5.44817 7.741 6.03779 7.4262C6.62742 7.11138 7.08698 6.66167 7.41648 6.077C7.75464 5.48338 7.92373 4.79079 7.92373 3.99924C7.92373 1.76196 7.1093 1.05802 6.56737 1.05802C6.02543 2.18234 5.4835 2.7445 4.72414 3.02783C4.90623 3.2437 4.99728 3.56751 4.99728 3.99924C4.99728 4.431 4.90623 4.7593 4.72414 4.98418C4.54205 5.20004 4.31661 5.30796 4.04781 5.30796C3.77033 5.30796 3.54055 5.20004 3.35846 4.98418C3.18504 4.7593 3.09833 4.431 3.09833 3.99924C3.09833 3.56751 3.18938 3.2437 3.37147 3.02783C3.55356 2.80298 3.77901 2.69055 4.04781 2.69055C5.4835 2.18235 5.26066 1.39948 6.03779 0.572315C5.44817 0.257503 4.78484 0.100098 4.04781 0.100098C3.31077 0.100098 2.64744 0.257503 2.05781 0.572315C1.46818 0.887126 1.00429 1.34135 0.66612 1.93499C0.336623 2.51964 0.171875 3.20772 0.171875 3.99924C0.171875 4.79079 0.336623 5.48338 0.66612 6.077C1.00429 6.66167 1.46818 7.11138 2.05781 7.4262Z" fill="#59CF60"/>
</g>
<defs>
<clipPath id="clip0_90_139">
<rect width="8" height="8" fill="white"/>
</clipPath>
</defs>
</svg>
