<svg width="18" height="20" viewBox="0 0 18 20" fill="none" xmlns="http://www.w3.org/2000/svg">
<path d="M7.55 1.03295C7.95577 0.690975 8.46934 0.503418 9 0.503418C9.53066 0.503418 10.0442 0.690975 10.45 1.03295L17.2 6.72795C17.708 7.15495 18 7.78395 18 8.44795V18.25C18 18.7141 17.8156 19.1592 17.4874 19.4874C17.1592 19.8156 16.7141 20 16.25 20H13.25C12.7859 20 12.3408 19.8156 12.0126 19.4874C11.6844 19.1592 11.5 18.7141 11.5 18.25V13.25C11.5 13.051 11.421 12.8603 11.2803 12.7196C11.1397 12.579 10.9489 12.5 10.75 12.5H7.25C7.05109 12.5 6.86032 12.579 6.71967 12.7196C6.57902 12.8603 6.5 13.051 6.5 13.25V18.25C6.5 18.7141 6.31563 19.1592 5.98744 19.4874C5.65925 19.8156 5.21413 20 4.75 20H1.75C1.52019 20 1.29262 19.9547 1.0803 19.8667C0.867984 19.7788 0.675066 19.6499 0.512563 19.4874C0.350061 19.3249 0.221157 19.132 0.133211 18.9196C0.0452652 18.7073 0 18.4798 0 18.25V8.44695C0 7.78395 0.292 7.15495 0.8 6.72695L7.55 1.03295V1.03295Z" fill="#F1FCF2"/>
</svg>
