<svg width="24" height="24" viewBox="0 0 24 24" fill="none" xmlns="http://www.w3.org/2000/svg">
<path fill-rule="evenodd" clip-rule="evenodd" d="M3 3C1.34315 3 0 4.34315 0 6V18C0 19.6569 1.34315 21 3 21H21C22.6569 21 24 19.6569 24 18V6C24 4.34315 22.6569 3 21 3H3ZM4.875 9C4.04657 9 3.375 9.67157 3.375 10.5V11C3.375 11.8284 4.04657 12.5 4.875 12.5H7.125C7.95343 12.5 8.625 11.8284 8.625 11V10.5C8.625 9.67157 7.95343 9 7.125 9H4.875ZM4.5 14.625C3.87868 14.625 3.375 15.1287 3.375 15.75C3.375 16.3713 3.87868 16.875 4.5 16.875H7.5C8.12132 16.875 8.625 16.3713 8.625 15.75C8.625 15.1287 8.12132 14.625 7.5 14.625H4.5ZM10.875 14.625C10.2537 14.625 9.75 15.1287 9.75 15.75C9.75 16.3713 10.2537 16.875 10.875 16.875H19.5C20.1213 16.875 20.625 16.3713 20.625 15.75C20.625 15.1287 20.1213 14.625 19.5 14.625H10.875Z" fill="#59CF60"/>
</svg>
